<?xml version="1.0" encoding="utf-8" standalone="no"?>
<!DOCTYPE svg PUBLIC "-//W3C//DTD SVG 1.1//EN"
  "http://www.w3.org/Graphics/SVG/1.1/DTD/svg11.dtd">
<!-- Created with matplotlib (http://matplotlib.org/) -->
<svg height="504pt" version="1.1" viewBox="0 0 648 504" width="648pt" xmlns="http://www.w3.org/2000/svg" xmlns:xlink="http://www.w3.org/1999/xlink">
 <defs>
  <style type="text/css">
*{stroke-linecap:butt;stroke-linejoin:round;}
  </style>
 </defs>
 <g id="figure_1">
  <g id="patch_1">
   <path d="M 0 504 
L 648 504 
L 648 0 
L 0 0 
z
" style="fill:#ffffff;"/>
  </g>
  <g id="axes_1">
   <g id="patch_2">
    <path d="M 81 441 
L 583.2 441 
L 583.2 60.48 
L 81 60.48 
z
" style="fill:#ffffff;"/>
   </g>
   <g id="matplotlib.axis_1">
    <g id="xtick_1">
     <g id="line2d_1">
      <defs>
       <path d="M 0 0 
L 0 3 
" id="m0d27e542bf" style="stroke:#000000;"/>
      </defs>
      <g>
       <use style="stroke:#000000;" x="583.2" xlink:href="#m0d27e542bf" y="441"/>
      </g>
     </g>
     <g id="text_1">
      <!-- 4.3 -->
      <defs>
       <path d="M 37.796875 64.3125 
L 12.890625 25.390625 
L 37.796875 25.390625 
z
M 35.203125 72.90625 
L 47.609375 72.90625 
L 47.609375 25.390625 
L 58.015625 25.390625 
L 58.015625 17.1875 
L 47.609375 17.1875 
L 47.609375 0 
L 37.796875 0 
L 37.796875 17.1875 
L 4.890625 17.1875 
L 4.890625 26.703125 
z
" id="DejaVuSans-34"/>
       <path d="M 10.6875 12.40625 
L 21 12.40625 
L 21 0 
L 10.6875 0 
z
" id="DejaVuSans-2e"/>
       <path d="M 40.578125 39.3125 
Q 47.65625 37.796875 51.625 33 
Q 55.609375 28.21875 55.609375 21.1875 
Q 55.609375 10.40625 48.1875 4.484375 
Q 40.765625 -1.421875 27.09375 -1.421875 
Q 22.515625 -1.421875 17.65625 -0.515625 
Q 12.796875 0.390625 7.625 2.203125 
L 7.625 11.71875 
Q 11.71875 9.328125 16.59375 8.109375 
Q 21.484375 6.890625 26.8125 6.890625 
Q 36.078125 6.890625 40.9375 10.546875 
Q 45.796875 14.203125 45.796875 21.1875 
Q 45.796875 27.640625 41.28125 31.265625 
Q 36.765625 34.90625 28.71875 34.90625 
L 20.21875 34.90625 
L 20.21875 43.015625 
L 29.109375 43.015625 
Q 36.375 43.015625 40.234375 45.921875 
Q 44.09375 48.828125 44.09375 54.296875 
Q 44.09375 59.90625 40.109375 62.90625 
Q 36.140625 65.921875 28.71875 65.921875 
Q 24.65625 65.921875 20.015625 65.03125 
Q 15.375 64.15625 9.8125 62.3125 
L 9.8125 71.09375 
Q 15.4375 72.65625 20.34375 73.4375 
Q 25.25 74.21875 29.59375 74.21875 
Q 40.828125 74.21875 47.359375 69.109375 
Q 53.90625 64.015625 53.90625 55.328125 
Q 53.90625 49.265625 50.4375 45.09375 
Q 46.96875 40.921875 40.578125 39.3125 
z
" id="DejaVuSans-33"/>
      </defs>
      <g transform="translate(567.296875 462.696875)scale(0.2 -0.2)">
       <use xlink:href="#DejaVuSans-34"/>
       <use x="63.623047" xlink:href="#DejaVuSans-2e"/>
       <use x="95.410156" xlink:href="#DejaVuSans-33"/>
      </g>
     </g>
    </g>
    <g id="xtick_2">
     <g id="line2d_2">
      <g>
       <use style="stroke:#000000;" x="457.65" xlink:href="#m0d27e542bf" y="441"/>
      </g>
     </g>
     <g id="text_2">
      <!-- 4.4 -->
      <g transform="translate(441.746875 462.696875)scale(0.2 -0.2)">
       <use xlink:href="#DejaVuSans-34"/>
       <use x="63.623047" xlink:href="#DejaVuSans-2e"/>
       <use x="95.410156" xlink:href="#DejaVuSans-34"/>
      </g>
     </g>
    </g>
    <g id="xtick_3">
     <g id="line2d_3">
      <g>
       <use style="stroke:#000000;" x="332.1" xlink:href="#m0d27e542bf" y="441"/>
      </g>
     </g>
     <g id="text_3">
      <!-- 4.5 -->
      <defs>
       <path d="M 10.796875 72.90625 
L 49.515625 72.90625 
L 49.515625 64.59375 
L 19.828125 64.59375 
L 19.828125 46.734375 
Q 21.96875 47.46875 24.109375 47.828125 
Q 26.265625 48.1875 28.421875 48.1875 
Q 40.625 48.1875 47.75 41.5 
Q 54.890625 34.8125 54.890625 23.390625 
Q 54.890625 11.625 47.5625 5.09375 
Q 40.234375 -1.421875 26.90625 -1.421875 
Q 22.3125 -1.421875 17.546875 -0.640625 
Q 12.796875 0.140625 7.71875 1.703125 
L 7.71875 11.625 
Q 12.109375 9.234375 16.796875 8.0625 
Q 21.484375 6.890625 26.703125 6.890625 
Q 35.15625 6.890625 40.078125 11.328125 
Q 45.015625 15.765625 45.015625 23.390625 
Q 45.015625 31 40.078125 35.4375 
Q 35.15625 39.890625 26.703125 39.890625 
Q 22.75 39.890625 18.8125 39.015625 
Q 14.890625 38.140625 10.796875 36.28125 
z
" id="DejaVuSans-35"/>
      </defs>
      <g transform="translate(316.196875 462.696875)scale(0.2 -0.2)">
       <use xlink:href="#DejaVuSans-34"/>
       <use x="63.623047" xlink:href="#DejaVuSans-2e"/>
       <use x="95.410156" xlink:href="#DejaVuSans-35"/>
      </g>
     </g>
    </g>
    <g id="xtick_4">
     <g id="line2d_4">
      <g>
       <use style="stroke:#000000;" x="206.55" xlink:href="#m0d27e542bf" y="441"/>
      </g>
     </g>
     <g id="text_4">
      <!-- 4.6 -->
      <defs>
       <path d="M 33.015625 40.375 
Q 26.375 40.375 22.484375 35.828125 
Q 18.609375 31.296875 18.609375 23.390625 
Q 18.609375 15.53125 22.484375 10.953125 
Q 26.375 6.390625 33.015625 6.390625 
Q 39.65625 6.390625 43.53125 10.953125 
Q 47.40625 15.53125 47.40625 23.390625 
Q 47.40625 31.296875 43.53125 35.828125 
Q 39.65625 40.375 33.015625 40.375 
z
M 52.59375 71.296875 
L 52.59375 62.3125 
Q 48.875 64.0625 45.09375 64.984375 
Q 41.3125 65.921875 37.59375 65.921875 
Q 27.828125 65.921875 22.671875 59.328125 
Q 17.53125 52.734375 16.796875 39.40625 
Q 19.671875 43.65625 24.015625 45.921875 
Q 28.375 48.1875 33.59375 48.1875 
Q 44.578125 48.1875 50.953125 41.515625 
Q 57.328125 34.859375 57.328125 23.390625 
Q 57.328125 12.15625 50.6875 5.359375 
Q 44.046875 -1.421875 33.015625 -1.421875 
Q 20.359375 -1.421875 13.671875 8.265625 
Q 6.984375 17.96875 6.984375 36.375 
Q 6.984375 53.65625 15.1875 63.9375 
Q 23.390625 74.21875 37.203125 74.21875 
Q 40.921875 74.21875 44.703125 73.484375 
Q 48.484375 72.75 52.59375 71.296875 
z
" id="DejaVuSans-36"/>
      </defs>
      <g transform="translate(190.646875 462.696875)scale(0.2 -0.2)">
       <use xlink:href="#DejaVuSans-34"/>
       <use x="63.623047" xlink:href="#DejaVuSans-2e"/>
       <use x="95.410156" xlink:href="#DejaVuSans-36"/>
      </g>
     </g>
    </g>
    <g id="xtick_5">
     <g id="line2d_5">
      <g>
       <use style="stroke:#000000;" x="81" xlink:href="#m0d27e542bf" y="441"/>
      </g>
     </g>
     <g id="text_5">
      <!-- 4.7 -->
      <defs>
       <path d="M 8.203125 72.90625 
L 55.078125 72.90625 
L 55.078125 68.703125 
L 28.609375 0 
L 18.3125 0 
L 43.21875 64.59375 
L 8.203125 64.59375 
z
" id="DejaVuSans-37"/>
      </defs>
      <g transform="translate(65.096875 462.696875)scale(0.2 -0.2)">
       <use xlink:href="#DejaVuSans-34"/>
       <use x="63.623047" xlink:href="#DejaVuSans-2e"/>
       <use x="95.410156" xlink:href="#DejaVuSans-37"/>
      </g>
     </g>
    </g>
    <g id="text_6">
     <!-- $Log(T_{eff}/K)$ -->
     <defs>
      <path d="M 16.796875 72.90625 
L 26.703125 72.90625 
L 14.203125 8.203125 
L 49.703125 8.203125 
L 48.09375 0 
L 2.6875 0 
z
" id="DejaVuSans-Oblique-4c"/>
      <path d="M 25.390625 -1.421875 
Q 15.765625 -1.421875 10.171875 4.515625 
Q 4.59375 10.453125 4.59375 20.703125 
Q 4.59375 26.65625 6.515625 32.828125 
Q 8.453125 39.015625 11.53125 43.21875 
Q 16.359375 49.75 22.3125 52.875 
Q 28.265625 56 35.796875 56 
Q 45.125 56 50.859375 50.1875 
Q 56.59375 44.390625 56.59375 35.015625 
Q 56.59375 28.515625 54.6875 22.0625 
Q 52.78125 15.625 49.703125 11.375 
Q 44.921875 4.828125 38.96875 1.703125 
Q 33.015625 -1.421875 25.390625 -1.421875 
z
M 13.921875 21 
Q 13.921875 13.578125 17.015625 9.890625 
Q 20.125 6.203125 26.421875 6.203125 
Q 35.453125 6.203125 41.375 14.078125 
Q 47.3125 21.96875 47.3125 34.078125 
Q 47.3125 41.15625 44.140625 44.765625 
Q 40.96875 48.390625 34.8125 48.390625 
Q 29.734375 48.390625 25.78125 46.015625 
Q 21.828125 43.65625 18.703125 38.8125 
Q 16.40625 35.203125 15.15625 30.5625 
Q 13.921875 25.921875 13.921875 21 
z
" id="DejaVuSans-Oblique-6f"/>
      <path d="M 59.625 54.6875 
L 50.296875 6.78125 
Q 47.609375 -7.125 40.015625 -13.953125 
Q 32.421875 -20.796875 19.578125 -20.796875 
Q 14.84375 -20.796875 10.78125 -20.09375 
Q 6.734375 -19.390625 3.21875 -17.921875 
L 4.890625 -9.1875 
Q 8.203125 -11.328125 11.90625 -12.34375 
Q 15.625 -13.375 19.828125 -13.375 
Q 28.375 -13.375 33.859375 -8.703125 
Q 39.359375 -4.046875 41.109375 4.6875 
L 41.890625 8.796875 
Q 38.140625 4.5 33.15625 2.25 
Q 28.171875 0 22.40625 0 
Q 14.109375 0 9.34375 5.484375 
Q 4.59375 10.984375 4.59375 20.609375 
Q 4.59375 28.171875 7.46875 35.421875 
Q 10.359375 42.671875 15.578125 48.296875 
Q 19.046875 52 23.65625 54 
Q 28.265625 56 33.296875 56 
Q 38.8125 56 42.90625 53.4375 
Q 47.015625 50.875 49.03125 46.1875 
L 50.59375 54.6875 
z
M 46.09375 34.625 
Q 46.09375 41.265625 42.96875 44.875 
Q 39.84375 48.484375 34.078125 48.484375 
Q 30.515625 48.484375 27.296875 47.0625 
Q 24.078125 45.65625 21.78125 43.109375 
Q 18.0625 38.921875 15.984375 33.234375 
Q 13.921875 27.546875 13.921875 21.484375 
Q 13.921875 14.75 17.0625 11.125 
Q 20.21875 7.515625 26.125 7.515625 
Q 34.671875 7.515625 40.375 15.25 
Q 46.09375 23 46.09375 34.625 
z
" id="DejaVuSans-Oblique-67"/>
      <path d="M 31 75.875 
Q 24.46875 64.65625 21.28125 53.65625 
Q 18.109375 42.671875 18.109375 31.390625 
Q 18.109375 20.125 21.3125 9.0625 
Q 24.515625 -2 31 -13.1875 
L 23.1875 -13.1875 
Q 15.875 -1.703125 12.234375 9.375 
Q 8.59375 20.453125 8.59375 31.390625 
Q 8.59375 42.28125 12.203125 53.3125 
Q 15.828125 64.359375 23.1875 75.875 
z
" id="DejaVuSans-28"/>
      <path d="M 5.90625 72.90625 
L 67.578125 72.90625 
L 66.015625 64.59375 
L 39.984375 64.59375 
L 27.484375 0 
L 17.578125 0 
L 30.078125 64.59375 
L 4.296875 64.59375 
z
" id="DejaVuSans-Oblique-54"/>
      <path d="M 48.09375 32.234375 
Q 48.25 33.015625 48.3125 33.84375 
Q 48.390625 34.671875 48.390625 35.5 
Q 48.390625 41.453125 44.890625 44.921875 
Q 41.40625 48.390625 35.40625 48.390625 
Q 28.71875 48.390625 23.578125 44.15625 
Q 18.453125 39.9375 15.828125 32.171875 
z
M 55.90625 25.203125 
L 14.109375 25.203125 
Q 13.8125 23.34375 13.71875 22.265625 
Q 13.625 21.1875 13.625 20.40625 
Q 13.625 13.625 17.796875 9.90625 
Q 21.96875 6.203125 29.59375 6.203125 
Q 35.453125 6.203125 40.671875 7.515625 
Q 45.90625 8.84375 50.390625 11.375 
L 48.6875 2.484375 
Q 43.84375 0.53125 38.6875 -0.4375 
Q 33.546875 -1.421875 28.21875 -1.421875 
Q 16.84375 -1.421875 10.71875 4.015625 
Q 4.59375 9.46875 4.59375 19.484375 
Q 4.59375 28.03125 7.640625 35.375 
Q 10.6875 42.71875 16.609375 48.484375 
Q 20.40625 52.09375 25.65625 54.046875 
Q 30.90625 56 36.8125 56 
Q 46.09375 56 51.578125 50.4375 
Q 57.078125 44.875 57.078125 35.5 
Q 57.078125 33.25 56.78125 30.6875 
Q 56.5 28.125 55.90625 25.203125 
z
" id="DejaVuSans-Oblique-65"/>
      <path d="M 47.796875 75.984375 
L 46.390625 68.5 
L 37.796875 68.5 
Q 32.90625 68.5 30.6875 66.578125 
Q 28.46875 64.65625 27.390625 59.515625 
L 26.421875 54.6875 
L 41.21875 54.6875 
L 39.890625 47.703125 
L 25.09375 47.703125 
L 15.828125 0 
L 6.78125 0 
L 16.109375 47.703125 
L 7.515625 47.703125 
L 8.796875 54.6875 
L 17.390625 54.6875 
L 18.109375 58.5 
Q 19.96875 68.171875 24.625 72.078125 
Q 29.296875 75.984375 39.3125 75.984375 
z
" id="DejaVuSans-Oblique-66"/>
      <path d="M 25.390625 72.90625 
L 33.6875 72.90625 
L 8.296875 -9.28125 
L 0 -9.28125 
z
" id="DejaVuSans-2f"/>
      <path d="M 16.890625 72.90625 
L 26.8125 72.90625 
L 20.796875 42.1875 
L 59.078125 72.90625 
L 72.21875 72.90625 
L 28.90625 38.09375 
L 60.59375 0 
L 48.578125 0 
L 19.484375 35.5 
L 12.59375 0 
L 2.6875 0 
z
" id="DejaVuSans-Oblique-4b"/>
      <path d="M 8.015625 75.875 
L 15.828125 75.875 
Q 23.140625 64.359375 26.78125 53.3125 
Q 30.421875 42.28125 30.421875 31.390625 
Q 30.421875 20.453125 26.78125 9.375 
Q 23.140625 -1.703125 15.828125 -13.1875 
L 8.015625 -13.1875 
Q 14.5 -2 17.703125 9.0625 
Q 20.90625 20.125 20.90625 31.390625 
Q 20.90625 42.671875 17.703125 53.65625 
Q 14.5 64.65625 8.015625 75.875 
z
" id="DejaVuSans-29"/>
     </defs>
     <g transform="translate(280.7 486.05625)scale(0.2 -0.2)">
      <use transform="translate(0 0.125)" xlink:href="#DejaVuSans-Oblique-4c"/>
      <use transform="translate(55.712891 0.125)" xlink:href="#DejaVuSans-Oblique-6f"/>
      <use transform="translate(116.894531 0.125)" xlink:href="#DejaVuSans-Oblique-67"/>
      <use transform="translate(180.371094 0.125)" xlink:href="#DejaVuSans-28"/>
      <use transform="translate(219.384766 0.125)" xlink:href="#DejaVuSans-Oblique-54"/>
      <use transform="translate(280.46875 -16.28125)scale(0.7)" xlink:href="#DejaVuSans-Oblique-65"/>
      <use transform="translate(323.535156 -16.28125)scale(0.7)" xlink:href="#DejaVuSans-Oblique-66"/>
      <use transform="translate(348.178711 -16.28125)scale(0.7)" xlink:href="#DejaVuSans-Oblique-66"/>
      <use transform="translate(375.556641 0.125)" xlink:href="#DejaVuSans-2f"/>
      <use transform="translate(409.248047 0.125)" xlink:href="#DejaVuSans-Oblique-4b"/>
      <use transform="translate(474.824219 0.125)" xlink:href="#DejaVuSans-29"/>
     </g>
    </g>
   </g>
   <g id="matplotlib.axis_2">
    <g id="ytick_1">
     <g id="line2d_6">
      <defs>
       <path d="M 0 0 
L -3 0 
" id="m5c87bddfe2" style="stroke:#000000;"/>
      </defs>
      <g>
       <use style="stroke:#000000;" x="81" xlink:href="#m5c87bddfe2" y="441"/>
      </g>
     </g>
     <g id="text_7">
      <!-- 4.7 -->
      <g transform="translate(42.69375 448.598437)scale(0.2 -0.2)">
       <use xlink:href="#DejaVuSans-34"/>
       <use x="63.623047" xlink:href="#DejaVuSans-2e"/>
       <use x="95.410156" xlink:href="#DejaVuSans-37"/>
      </g>
     </g>
    </g>
    <g id="ytick_2">
     <g id="line2d_7">
      <g>
       <use style="stroke:#000000;" x="81" xlink:href="#m5c87bddfe2" y="353.268788"/>
      </g>
     </g>
     <g id="text_8">
      <!-- 5.0 -->
      <defs>
       <path d="M 31.78125 66.40625 
Q 24.171875 66.40625 20.328125 58.90625 
Q 16.5 51.421875 16.5 36.375 
Q 16.5 21.390625 20.328125 13.890625 
Q 24.171875 6.390625 31.78125 6.390625 
Q 39.453125 6.390625 43.28125 13.890625 
Q 47.125 21.390625 47.125 36.375 
Q 47.125 51.421875 43.28125 58.90625 
Q 39.453125 66.40625 31.78125 66.40625 
z
M 31.78125 74.21875 
Q 44.046875 74.21875 50.515625 64.515625 
Q 56.984375 54.828125 56.984375 36.375 
Q 56.984375 17.96875 50.515625 8.265625 
Q 44.046875 -1.421875 31.78125 -1.421875 
Q 19.53125 -1.421875 13.0625 8.265625 
Q 6.59375 17.96875 6.59375 36.375 
Q 6.59375 54.828125 13.0625 64.515625 
Q 19.53125 74.21875 31.78125 74.21875 
z
" id="DejaVuSans-30"/>
      </defs>
      <g transform="translate(42.69375 360.867225)scale(0.2 -0.2)">
       <use xlink:href="#DejaVuSans-35"/>
       <use x="63.623047" xlink:href="#DejaVuSans-2e"/>
       <use x="95.410156" xlink:href="#DejaVuSans-30"/>
      </g>
     </g>
    </g>
    <g id="ytick_3">
     <g id="line2d_8">
      <g>
       <use style="stroke:#000000;" x="81" xlink:href="#m5c87bddfe2" y="265.537575"/>
      </g>
     </g>
     <g id="text_9">
      <!-- 5.3 -->
      <g transform="translate(42.69375 273.136013)scale(0.2 -0.2)">
       <use xlink:href="#DejaVuSans-35"/>
       <use x="63.623047" xlink:href="#DejaVuSans-2e"/>
       <use x="95.410156" xlink:href="#DejaVuSans-33"/>
      </g>
     </g>
    </g>
    <g id="ytick_4">
     <g id="line2d_9">
      <g>
       <use style="stroke:#000000;" x="81" xlink:href="#m5c87bddfe2" y="177.806363"/>
      </g>
     </g>
     <g id="text_10">
      <!-- 5.6 -->
      <g transform="translate(42.69375 185.4048)scale(0.2 -0.2)">
       <use xlink:href="#DejaVuSans-35"/>
       <use x="63.623047" xlink:href="#DejaVuSans-2e"/>
       <use x="95.410156" xlink:href="#DejaVuSans-36"/>
      </g>
     </g>
    </g>
    <g id="ytick_5">
     <g id="line2d_10">
      <g>
       <use style="stroke:#000000;" x="81" xlink:href="#m5c87bddfe2" y="90.075151"/>
      </g>
     </g>
     <g id="text_11">
      <!-- 5.9 -->
      <defs>
       <path d="M 10.984375 1.515625 
L 10.984375 10.5 
Q 14.703125 8.734375 18.5 7.8125 
Q 22.3125 6.890625 25.984375 6.890625 
Q 35.75 6.890625 40.890625 13.453125 
Q 46.046875 20.015625 46.78125 33.40625 
Q 43.953125 29.203125 39.59375 26.953125 
Q 35.25 24.703125 29.984375 24.703125 
Q 19.046875 24.703125 12.671875 31.3125 
Q 6.296875 37.9375 6.296875 49.421875 
Q 6.296875 60.640625 12.9375 67.421875 
Q 19.578125 74.21875 30.609375 74.21875 
Q 43.265625 74.21875 49.921875 64.515625 
Q 56.59375 54.828125 56.59375 36.375 
Q 56.59375 19.140625 48.40625 8.859375 
Q 40.234375 -1.421875 26.421875 -1.421875 
Q 22.703125 -1.421875 18.890625 -0.6875 
Q 15.09375 0.046875 10.984375 1.515625 
z
M 30.609375 32.421875 
Q 37.25 32.421875 41.125 36.953125 
Q 45.015625 41.5 45.015625 49.421875 
Q 45.015625 57.28125 41.125 61.84375 
Q 37.25 66.40625 30.609375 66.40625 
Q 23.96875 66.40625 20.09375 61.84375 
Q 16.21875 57.28125 16.21875 49.421875 
Q 16.21875 41.5 20.09375 36.953125 
Q 23.96875 32.421875 30.609375 32.421875 
z
" id="DejaVuSans-39"/>
      </defs>
      <g transform="translate(42.69375 97.673588)scale(0.2 -0.2)">
       <use xlink:href="#DejaVuSans-35"/>
       <use x="63.623047" xlink:href="#DejaVuSans-2e"/>
       <use x="95.410156" xlink:href="#DejaVuSans-39"/>
      </g>
     </g>
    </g>
    <g id="text_12">
     <!-- $Log(L/L_{\odot})$ -->
     <defs>
      <path d="M 36.71875 37.546875 
L 47.078125 37.546875 
L 47.078125 25.140625 
L 36.71875 25.140625 
z
M 51.65625 55.03125 
Q 47.125 56.9375 41.890625 56.9375 
Q 36.671875 56.9375 32.125 55.03125 
Q 27.640625 53.125 23.921875 49.421875 
Q 20.171875 45.65625 18.3125 41.15625 
Q 16.453125 36.671875 16.453125 31.34375 
Q 16.453125 26.171875 18.3125 21.671875 
Q 20.171875 17.1875 23.921875 13.421875 
Q 27.640625 9.71875 32.125 7.8125 
Q 36.671875 5.90625 41.890625 5.90625 
Q 47.125 5.90625 51.65625 7.8125 
Q 56.15625 9.71875 59.859375 13.421875 
Q 63.625 17.1875 65.46875 21.671875 
Q 67.328125 26.171875 67.328125 31.34375 
Q 67.328125 36.671875 65.46875 41.15625 
Q 63.625 45.65625 59.859375 49.421875 
Q 56.15625 53.125 51.65625 55.03125 
z
M 23.53125 59.375 
Q 35.15625 64.265625 41.890625 64.265625 
Q 48.640625 64.265625 54.4375 61.8125 
Q 60.25 59.375 65.046875 54.59375 
Q 69.875 49.75 72.265625 43.953125 
Q 74.65625 38.1875 74.65625 31.34375 
Q 74.65625 24.65625 72.265625 18.84375 
Q 69.875 13.09375 65.046875 8.25 
Q 60.25 3.46875 54.4375 1.015625 
Q 48.640625 -1.421875 41.890625 -1.421875 
Q 35.15625 -1.421875 29.34375 1.015625 
Q 23.53125 3.46875 18.75 8.25 
Q 13.921875 13.09375 11.53125 18.84375 
Q 9.125 24.65625 9.125 31.34375 
Q 9.125 38.1875 11.53125 43.953125 
Q 13.921875 49.75 18.75 54.59375 
Q 23.53125 59.375 35.15625 64.265625 
z
" id="DejaVuSans-2299"/>
     </defs>
     <g transform="translate(34.49375 297.24)rotate(-90)scale(0.2 -0.2)">
      <use transform="translate(0 0.125)" xlink:href="#DejaVuSans-Oblique-4c"/>
      <use transform="translate(55.712891 0.125)" xlink:href="#DejaVuSans-Oblique-6f"/>
      <use transform="translate(116.894531 0.125)" xlink:href="#DejaVuSans-Oblique-67"/>
      <use transform="translate(180.371094 0.125)" xlink:href="#DejaVuSans-28"/>
      <use transform="translate(219.384766 0.125)" xlink:href="#DejaVuSans-Oblique-4c"/>
      <use transform="translate(275.097656 0.125)" xlink:href="#DejaVuSans-2f"/>
      <use transform="translate(308.789062 0.125)" xlink:href="#DejaVuSans-Oblique-4c"/>
      <use transform="translate(364.501953 -16.28125)scale(0.7)" xlink:href="#DejaVuSans-2299"/>
      <use transform="translate(425.888672 0.125)" xlink:href="#DejaVuSans-29"/>
     </g>
    </g>
   </g>
   <g id="line2d_11">
    <path clip-path="url(#pbb0cc6a3af)" d="M 230.340529 389.88159 
L 230.305356 389.577667 
L 231.446676 389.353283 
L 233.657715 388.777272 
L 235.976318 387.922606 
L 237.924786 386.95881 
L 239.891528 385.713198 
L 241.893304 384.137255 
L 243.871294 382.281993 
L 246.312744 379.658213 
L 250.24467 375.018898 
L 255.425411 368.880139 
L 258.843873 365.12658 
L 262.401634 361.527287 
L 266.179997 358.014425 
L 270.175906 354.609608 
L 274.225121 351.451392 
L 278.30281 348.516827 
L 283.357949 345.17913 
L 287.337483 342.751399 
L 293.667669 339.274078 
L 299.616523 336.276473 
L 306.241632 333.184974 
L 313.521085 330.040916 
L 319.734401 327.54295 
L 327.897688 324.501585 
L 338.187735 320.959697 
L 346.999482 318.1702 
L 353.883635 316.231273 
L 370.565502 311.751073 
L 383.258076 308.757821 
L 399.985541 305.094175 
L 415.384289 301.681783 
L 421.483516 300.219444 
L 424.288206 299.449626 
L 426.756535 298.646483 
L 428.60329 297.786342 
L 429.210403 296.824846 
L 426.828152 295.665631 
L 411.457158 293.517697 
L 396.671014 291.697922 
L 380.675038 289.202302 
L 370.393906 283.9436 
L 369.519115 282.293896 
L 370.367592 281.054009 
L 373.169284 280.666813 
L 376.171318 280.388036 
L 382.249991 280.466366 
L 388.671996 279.612026 
L 405.625345 279.318346 
L 414.286407 278.997736 
L 432.664601 277.727045 
L 441.911411 277.175789 
L 460.8165 276.40576 
L 545.969761 273.339211 
L 582.500167 272.411901 
L 649 271.04912 
L 649 271.04912 
" style="fill:none;stroke:#0000ff;stroke-linecap:square;stroke-width:1.3;"/>
   </g>
   <g id="line2d_12">
    <path clip-path="url(#pbb0cc6a3af)" d="M 220.732128 392.45832 
L 225.604723 391.269562 
L 228.358035 389.99629 
L 230.258862 388.745828 
L 231.78555 387.422549 
L 234.206154 384.79997 
L 236.258896 382.175637 
L 241.927479 374.445933 
L 245.904903 369.42566 
L 249.196824 365.756741 
L 252.749889 362.111801 
L 259.224502 356.170936 
L 268.286701 349.247189 
L 273.56859 345.864566 
L 279.338868 342.481943 
L 283.358979 340.257372 
L 292.207743 335.894791 
L 299.462022 332.71044 
L 307.295086 329.471404 
L 311.733279 328.337624 
L 317.509834 326.258979 
L 329.984482 322.128301 
L 343.749784 317.994114 
L 362.641293 313.004255 
L 370.766889 311.037614 
L 383.691006 308.008548 
L 392.851134 305.940138 
L 406.277451 302.969852 
L 414.763375 300.95993 
L 418.75461 299.873232 
L 421.484067 298.880407 
L 423.451435 297.699253 
L 423.308308 297.353884 
L 422.816152 296.990677 
L 421.127505 296.28795 
L 418.288819 295.564752 
L 414.143158 294.885713 
L 387.8442 291.033435 
L 357.781252 284.631689 
L 359.749876 285.262476 
L 359.599216 284.81066 
L 359.599216 284.81066 
L 361.41718 284.937871 
L 363.753666 284.987 
L 363.753666 284.987 
L 366.286009 284.810368 
L 366.286009 284.810368 
L 370.078875 284.880261 
L 374.318698 284.794284 
L 374.318698 284.794284 
L 387.709861 283.114231 
L 402.348991 281.610811 
L 407.185177 281.19321 
L 411.784074 280.632023 
L 411.784074 280.632023 
L 426.848818 279.390626 
L 443.17534 278.422366 
L 469.866015 277.21226 
L 537.922903 274.637934 
L 543.890295 274.014457 
L 557.076811 273.518484 
L 576.077548 273.029821 
L 607.75758 272.561629 
L 634.847503 272.120925 
L 649 271.776478 
L 649 271.776478 
" style="fill:none;stroke:#000875;stroke-linecap:square;stroke-width:0.8;"/>
   </g>
   <g id="line2d_13">
    <path clip-path="url(#pbb0cc6a3af)" d="M 187.388018 313.990498 
L 187.507549 313.801898 
L 193.115055 312.262881 
L 195.113124 311.380818 
L 197.151476 310.252205 
L 199.19513 308.887786 
L 201.637895 306.992453 
L 204.775615 304.247619 
L 217.375685 292.935667 
L 221.805499 289.440108 
L 226.416109 286.039866 
L 231.132843 282.844893 
L 235.919626 279.885033 
L 240.690981 277.161397 
L 245.8624 274.458476 
L 251.494528 271.757828 
L 257.989415 268.86521 
L 264.595847 266.186005 
L 272.732862 263.142634 
L 280.391645 260.524025 
L 289.960266 257.537328 
L 299.81766 254.717086 
L 309.60953 252.152503 
L 322.718489 248.995156 
L 338.222483 245.675735 
L 352.800179 242.856991 
L 371.860522 239.438783 
L 389.165373 236.566839 
L 395.27364 235.601751 
L 403.966008 234.105061 
L 412.554216 232.581752 
L 417.786039 231.483522 
L 420.021366 230.886811 
L 421.734269 230.245489 
L 422.482669 229.545263 
L 421.207136 228.727902 
L 414.925062 227.672526 
L 391.957058 225.702133 
L 388.120559 225.173078 
L 374.572077 222.926615 
L 363.052008 220.643672 
L 351.867186 218.257865 
L 350.987595 217.925495 
L 355.048885 214.089534 
L 362.130975 211.439382 
L 369.026488 210.188429 
L 373.376609 209.195538 
L 388.543179 209.451735 
L 397.821238 209.888522 
L 417.802376 210.184079 
L 439.130074 209.928579 
L 496.10569 208.316947 
L 533.910927 207.275875 
L 574.286135 206.399098 
L 644.377554 204.959881 
L 649 204.83458 
L 649 204.83458 
" style="fill:none;stroke:#009cb2;stroke-linecap:square;stroke-width:1.3;"/>
   </g>
   <g id="line2d_14">
    <path clip-path="url(#pbb0cc6a3af)" d="M 177.609469 316.685749 
L 182.566183 315.585308 
L 185.412402 314.454745 
L 187.42999 313.271251 
L 190.473322 310.896952 
L 194.07033 307.327461 
L 199.604574 301.515853 
L 201.878284 299.222852 
L 206.832487 294.743296 
L 210.960571 291.454838 
L 213.902208 289.287584 
L 218.713284 286.066679 
L 225.621045 281.900909 
L 229.462875 279.789803 
L 235.535728 276.702834 
L 239.873481 274.706657 
L 246.836484 271.708004 
L 254.576641 268.639751 
L 262.733625 265.735263 
L 268.643263 263.780904 
L 284.696086 258.974403 
L 299.371626 255.156048 
L 311.313942 252.321745 
L 333.555124 247.65386 
L 364.562208 242.044326 
L 388.092789 238.336805 
L 418.572562 233.487609 
L 423.96619 232.510283 
L 428.211036 231.445519 
L 430.06792 230.302381 
L 429.943626 230.098552 
L 429.397483 229.80436 
L 427.966213 229.383835 
L 425.394949 228.891663 
L 419.142559 228.014936 
L 402.839892 226.011447 
L 394.101612 224.763325 
L 361.368216 218.492005 
L 361.723522 218.487034 
L 366.697813 218.681212 
L 375.021778 218.406321 
L 377.886829 218.338475 
L 395.760127 216.673045 
L 406.234764 215.849833 
L 434.17215 214.352846 
L 486.202581 211.910117 
L 513.090369 210.947706 
L 536.058486 210.303466 
L 585.613071 209.127283 
L 649 207.999013 
L 649 207.999013 
" style="fill:none;stroke:#004752;stroke-linecap:square;stroke-width:0.8;"/>
   </g>
   <g id="line2d_15">
    <path clip-path="url(#pbb0cc6a3af)" d="M 154.223136 250.147745 
L 154.377426 250.023853 
L 160.268274 248.541657 
L 162.713174 247.553971 
L 165.194698 246.291446 
L 167.925118 244.635229 
L 171.386529 242.234999 
L 186.335169 231.423812 
L 190.535162 228.757258 
L 196.269475 225.444025 
L 197.61053 224.738041 
L 202.010386 222.491102 
L 207.583094 219.891718 
L 213.825476 217.255295 
L 220.635114 214.631568 
L 230.682675 211.101161 
L 239.598839 208.303758 
L 249.643577 205.44082 
L 258.236999 203.223638 
L 268.473106 200.797923 
L 279.806413 198.32849 
L 293.815916 195.547401 
L 305.952942 193.351874 
L 324.338158 190.272482 
L 339.426346 187.982453 
L 360.084443 185.063619 
L 379.861364 182.593282 
L 411.859327 178.672216 
L 420.276121 177.465773 
L 425.366685 176.576275 
L 427.459219 176.091671 
L 428.967884 175.564747 
L 429.388671 174.971417 
L 427.509335 174.246533 
L 419.966277 173.238059 
L 390.549993 170.735809 
L 384.929981 169.826996 
L 373.710564 167.79227 
L 360.146694 165.336467 
L 353.46514 164.463783 
L 352.083559 164.400805 
L 351.643733 164.556787 
L 354.823602 165.084779 
L 373.738933 163.218734 
L 383.953938 161.661591 
L 394.26152 160.766968 
L 402.806427 159.767915 
L 413.331557 159.431506 
L 422.974497 158.580416 
L 434.288645 157.989872 
L 444.587402 157.060021 
L 455.427852 156.44571 
L 476.442193 155.792968 
L 539.793333 155.313877 
L 649 153.750177 
L 649 153.750177 
" style="fill:none;stroke:#008000;stroke-linecap:square;stroke-width:1.3;"/>
   </g>
   <g id="line2d_16">
    <path clip-path="url(#pbb0cc6a3af)" d="M 144.116496 252.909545 
L 149.372019 251.967311 
L 152.395263 250.955478 
L 154.599921 249.914693 
L 157.903141 247.846576 
L 161.998582 244.764579 
L 167.128555 240.718415 
L 172.543527 236.729862 
L 175.441221 234.771116 
L 180.100381 231.907277 
L 185.249187 229.04607 
L 190.80603 226.259434 
L 196.898971 223.509938 
L 203.533033 220.811033 
L 210.711982 218.110374 
L 221.420142 214.591183 
L 230.272672 211.955445 
L 239.952577 209.373223 
L 250.314219 206.819367 
L 258.051865 205.067667 
L 274.453717 201.655801 
L 288.237852 199.118906 
L 303.305107 196.573824 
L 313.789788 194.925062 
L 337.513716 191.521383 
L 357.025441 188.929803 
L 385.796479 185.475826 
L 401.360913 183.719739 
L 435.057277 180.089129 
L 450.452218 178.202616 
L 457.288416 177.125276 
L 461.198043 175.876276 
L 460.874124 175.612498 
L 459.822015 175.27561 
L 457.843347 174.86532 
L 452.96824 174.158792 
L 427.737712 171.118028 
L 392.6038 165.585697 
L 392.893821 165.828421 
L 392.635188 165.752972 
L 392.584968 165.745076 
L 393.677253 165.851523 
L 397.42492 165.990138 
L 398.782116 165.819063 
L 411.004408 165.246178 
L 438.350454 163.667601 
L 475.088895 161.241248 
L 488.74999 160.453422 
L 521.136868 158.990942 
L 547.971925 158.092282 
L 574.917466 157.455061 
L 609.311889 156.861413 
L 649 156.314719 
L 649 156.314719 
" style="fill:none;stroke:#004007;stroke-linecap:square;stroke-width:0.8;"/>
   </g>
   <g id="line2d_17">
    <path clip-path="url(#pbb0cc6a3af)" d="M 124.910246 190.793259 
L 124.868665 190.574662 
L 124.883135 190.462728 
L 124.941396 190.406804 
L 125.043377 190.374978 
L 125.174455 190.349855 
L 125.336554 190.323743 
L 125.52742 190.293351 
L 125.755706 190.256932 
L 126.021992 190.213268 
L 126.33272 190.16057 
L 126.691831 190.096722 
L 127.103106 190.01954 
L 127.573045 189.925997 
L 128.102496 189.813341 
L 128.698173 189.676608 
L 129.362178 189.511498 
L 130.102813 189.311132 
L 130.92658 189.068767 
L 131.835493 188.774389 
L 132.839743 188.417528 
L 133.950989 187.98471 
L 135.181107 187.464264 
L 136.540781 186.831261 
L 138.063699 186.067907 
L 139.775282 185.147142 
L 141.65699 184.038051 
L 144.052765 182.695149 
L 146.861658 181.083353 
L 150.447248 179.070203 
L 155.701306 176.159142 
L 162.813656 172.642593 
L 172.828014 168.362187 
L 187.778431 163.077585 
L 214.139995 155.725767 
L 245.970958 149.06591 
L 279.816323 143.647607 
L 316.009887 138.956244 
L 359.874689 134.236079 
L 403.202327 130.382787 
L 444.774758 127.212349 
L 481.316929 124.564807 
L 533.828671 123.515404 
L 574.415523 122.073549 
L 578.198618 120.982248 
L 567.327904 119.931686 
L 559.081735 119.583308 
L 555.247426 119.063629 
L 546.041733 118.148015 
L 532.493201 116.454548 
L 513.323231 113.754684 
L 503.896324 112.767025 
L 503.998519 112.959641 
L 509.54027 113.551009 
L 517.738976 114.216729 
L 529.220279 115.066032 
L 559.333601 114.288138 
L 588.977904 112.711729 
L 613.300065 111.216568 
L 632.465468 110.027761 
L 646.688343 108.946646 
L 649 108.781188 
" style="fill:none;stroke:#bfbf00;stroke-linecap:square;stroke-width:1.3;"/>
   </g>
   <g id="line2d_18">
    <path clip-path="url(#pbb0cc6a3af)" d="M 114.942442 193.402633 
L 120.614792 192.629721 
L 123.857748 191.761182 
L 126.177912 190.913114 
L 129.767386 189.171649 
L 134.267098 186.580069 
L 141.433492 182.31487 
L 146.021089 179.787919 
L 150.932605 177.360396 
L 156.33 174.914157 
L 164.199474 171.736825 
L 170.980429 169.366035 
L 178.136779 167.018348 
L 183.27303 165.468723 
L 191.809174 163.173089 
L 201.077275 160.851136 
L 207.663628 159.337188 
L 218.771037 157.024886 
L 230.661877 154.75177 
L 239.521941 153.196003 
L 258.682126 150.153192 
L 274.578012 147.907566 
L 293.026329 145.534436 
L 312.698758 143.246406 
L 327.683151 141.657302 
L 360.441657 138.46447 
L 388.637676 136.027882 
L 420.90277 133.559711 
L 443.947473 131.891941 
L 457.929976 131.283963 
L 523.1758 129.765043 
L 546.747813 129.110569 
L 567.982084 128.330931 
L 581.328049 127.124042 
L 581.284107 127.022858 
L 580.968976 126.871668 
L 578.979009 126.478047 
L 576.049927 126.101388 
L 558.626098 124.190602 
L 552.776724 123.464773 
L 517.6516 119.020017 
L 518.230386 119.207469 
L 520.918411 119.64671 
L 532.012009 120.759435 
L 533.27002 120.87407 
L 544.413838 121.132877 
L 560.111355 120.676967 
L 582.383925 119.983013 
L 612.589999 119.300464 
L 636.887691 118.900703 
L 649 118.945383 
L 649 118.945383 
" style="fill:none;stroke:#4c4600;stroke-linecap:square;stroke-width:0.8;"/>
   </g>
   <g id="line2d_19">
    <path clip-path="url(#pbb0cc6a3af)" d="M 104.53725 145.447502 
L 105.123613 145.375375 
L 105.77869 145.287796 
L 106.511519 145.181545 
L 107.324011 145.052573 
L 108.198696 144.895604 
L 109.159961 144.703718 
L 110.203626 144.470797 
L 111.334156 144.188933 
L 112.574379 143.843223 
L 113.922355 143.424784 
L 115.417415 142.919287 
L 117.071333 142.30786 
L 118.920554 141.564285 
L 121.033081 140.670309 
L 123.497736 139.588711 
L 126.438046 138.278854 
L 130.04859 136.695143 
L 135.209037 134.375048 
L 142.309276 131.448687 
L 152.245768 127.905929 
L 166.916123 123.510462 
L 191.027323 117.764034 
L 220.9493 112.161351 
L 252.701619 107.561729 
L 285.110605 103.774452 
L 318.413229 100.455817 
L 356.397519 97.156423 
L 392.257272 94.432218 
L 421.402448 92.212406 
L 446.983984 90.407242 
L 473.977455 89.271974 
L 506.050707 88.822415 
L 533.760097 88.285801 
L 556.304386 87.807832 
L 573.916992 87.391171 
L 588.207055 87.007205 
L 601.069676 86.62069 
L 613.029309 86.204393 
L 626.603788 85.635133 
L 639.237768 84.760815 
L 637.154689 83.425257 
L 633.24962 83.173673 
L 631.823047 82.847342 
L 628.163511 82.371419 
L 622.553073 81.546171 
L 613.562962 79.964501 
L 600.118021 77.321174 
L 595.592717 76.288491 
L 599.678167 76.352516 
L 608.956481 76.860972 
L 620.706457 77.494256 
L 633.658791 78.162333 
L 649 78.805745 
" style="fill:none;stroke:#ff0000;stroke-linecap:square;stroke-width:1.3;"/>
   </g>
   <g id="line2d_20">
    <path clip-path="url(#pbb0cc6a3af)" d="M 94.78539 147.656654 
L 100.484104 147.049554 
L 103.808668 146.385722 
L 108.28327 145.02618 
L 113.242495 142.956601 
L 123.850215 138.163845 
L 128.715277 136.151583 
L 134.033575 134.160085 
L 139.661982 132.20748 
L 146.027367 130.216274 
L 160.333789 126.34762 
L 165.629488 125.085461 
L 177.71242 122.491541 
L 190.962967 119.956694 
L 198.59013 118.638971 
L 215.024625 116.024581 
L 228.862746 114.070807 
L 244.317951 112.090421 
L 255.646327 110.750473 
L 274.5981 108.677092 
L 295.346493 106.635587 
L 318.976258 104.510444 
L 345.811315 102.352256 
L 365.533965 100.91288 
L 397.73754 98.747088 
L 435.344787 96.493274 
L 450.71964 95.999054 
L 530.376093 94.925224 
L 596.646405 93.987963 
L 634.932877 94.625769 
L 649 94.742158 
M 649 99.138439 
L 646.840039 99.167613 
L 610.374042 99.460928 
L 603.37714 99.271721 
L 603.581787 99.094797 
L 602.024967 98.837159 
L 602.078953 98.68246 
L 602.666527 98.495885 
L 601.532811 98.340308 
L 596.707924 98.008977 
L 580.269663 97.169096 
L 537.224845 95.82096 
L 442.850166 87.100185 
L 443.361154 86.843718 
L 444.310312 86.683462 
L 445.725261 86.564732 
L 451.004638 86.493962 
L 498.632031 86.841963 
L 546.038455 86.494547 
L 569.574058 86.21527 
L 585.609304 86.162046 
L 649 85.475448 
L 649 85.475448 
" style="fill:none;stroke:#690c00;stroke-linecap:square;stroke-width:0.8;"/>
   </g>
   <g id="patch_3">
    <path d="M 81 441 
L 81 60.48 
" style="fill:none;stroke:#000000;stroke-linecap:square;stroke-linejoin:miter;"/>
   </g>
   <g id="patch_4">
    <path d="M 583.2 441 
L 583.2 60.48 
" style="fill:none;stroke:#000000;stroke-linecap:square;stroke-linejoin:miter;"/>
   </g>
   <g id="patch_5">
    <path d="M 81 441 
L 583.2 441 
" style="fill:none;stroke:#000000;stroke-linecap:square;stroke-linejoin:miter;"/>
   </g>
   <g id="patch_6">
    <path d="M 81 60.48 
L 583.2 60.48 
" style="fill:none;stroke:#000000;stroke-linecap:square;stroke-linejoin:miter;"/>
   </g>
   <g id="text_13">
    <!-- HR Diagram -->
    <defs>
     <path d="M 9.8125 72.90625 
L 19.671875 72.90625 
L 19.671875 43.015625 
L 55.515625 43.015625 
L 55.515625 72.90625 
L 65.375 72.90625 
L 65.375 0 
L 55.515625 0 
L 55.515625 34.71875 
L 19.671875 34.71875 
L 19.671875 0 
L 9.8125 0 
z
" id="DejaVuSans-48"/>
     <path d="M 44.390625 34.1875 
Q 47.5625 33.109375 50.5625 29.59375 
Q 53.5625 26.078125 56.59375 19.921875 
L 66.609375 0 
L 56 0 
L 46.6875 18.703125 
Q 43.0625 26.03125 39.671875 28.421875 
Q 36.28125 30.8125 30.421875 30.8125 
L 19.671875 30.8125 
L 19.671875 0 
L 9.8125 0 
L 9.8125 72.90625 
L 32.078125 72.90625 
Q 44.578125 72.90625 50.734375 67.671875 
Q 56.890625 62.453125 56.890625 51.90625 
Q 56.890625 45.015625 53.6875 40.46875 
Q 50.484375 35.9375 44.390625 34.1875 
z
M 19.671875 64.796875 
L 19.671875 38.921875 
L 32.078125 38.921875 
Q 39.203125 38.921875 42.84375 42.21875 
Q 46.484375 45.515625 46.484375 51.90625 
Q 46.484375 58.296875 42.84375 61.546875 
Q 39.203125 64.796875 32.078125 64.796875 
z
" id="DejaVuSans-52"/>
     <path id="DejaVuSans-20"/>
     <path d="M 19.671875 64.796875 
L 19.671875 8.109375 
L 31.59375 8.109375 
Q 46.6875 8.109375 53.6875 14.9375 
Q 60.6875 21.78125 60.6875 36.53125 
Q 60.6875 51.171875 53.6875 57.984375 
Q 46.6875 64.796875 31.59375 64.796875 
z
M 9.8125 72.90625 
L 30.078125 72.90625 
Q 51.265625 72.90625 61.171875 64.09375 
Q 71.09375 55.28125 71.09375 36.53125 
Q 71.09375 17.671875 61.125 8.828125 
Q 51.171875 0 30.078125 0 
L 9.8125 0 
z
" id="DejaVuSans-44"/>
     <path d="M 9.421875 54.6875 
L 18.40625 54.6875 
L 18.40625 0 
L 9.421875 0 
z
M 9.421875 75.984375 
L 18.40625 75.984375 
L 18.40625 64.59375 
L 9.421875 64.59375 
z
" id="DejaVuSans-69"/>
     <path d="M 34.28125 27.484375 
Q 23.390625 27.484375 19.1875 25 
Q 14.984375 22.515625 14.984375 16.5 
Q 14.984375 11.71875 18.140625 8.90625 
Q 21.296875 6.109375 26.703125 6.109375 
Q 34.1875 6.109375 38.703125 11.40625 
Q 43.21875 16.703125 43.21875 25.484375 
L 43.21875 27.484375 
z
M 52.203125 31.203125 
L 52.203125 0 
L 43.21875 0 
L 43.21875 8.296875 
Q 40.140625 3.328125 35.546875 0.953125 
Q 30.953125 -1.421875 24.3125 -1.421875 
Q 15.921875 -1.421875 10.953125 3.296875 
Q 6 8.015625 6 15.921875 
Q 6 25.140625 12.171875 29.828125 
Q 18.359375 34.515625 30.609375 34.515625 
L 43.21875 34.515625 
L 43.21875 35.40625 
Q 43.21875 41.609375 39.140625 45 
Q 35.0625 48.390625 27.6875 48.390625 
Q 23 48.390625 18.546875 47.265625 
Q 14.109375 46.140625 10.015625 43.890625 
L 10.015625 52.203125 
Q 14.9375 54.109375 19.578125 55.046875 
Q 24.21875 56 28.609375 56 
Q 40.484375 56 46.34375 49.84375 
Q 52.203125 43.703125 52.203125 31.203125 
z
" id="DejaVuSans-61"/>
     <path d="M 45.40625 27.984375 
Q 45.40625 37.75 41.375 43.109375 
Q 37.359375 48.484375 30.078125 48.484375 
Q 22.859375 48.484375 18.828125 43.109375 
Q 14.796875 37.75 14.796875 27.984375 
Q 14.796875 18.265625 18.828125 12.890625 
Q 22.859375 7.515625 30.078125 7.515625 
Q 37.359375 7.515625 41.375 12.890625 
Q 45.40625 18.265625 45.40625 27.984375 
z
M 54.390625 6.78125 
Q 54.390625 -7.171875 48.1875 -13.984375 
Q 42 -20.796875 29.203125 -20.796875 
Q 24.46875 -20.796875 20.265625 -20.09375 
Q 16.0625 -19.390625 12.109375 -17.921875 
L 12.109375 -9.1875 
Q 16.0625 -11.328125 19.921875 -12.34375 
Q 23.78125 -13.375 27.78125 -13.375 
Q 36.625 -13.375 41.015625 -8.765625 
Q 45.40625 -4.15625 45.40625 5.171875 
L 45.40625 9.625 
Q 42.625 4.78125 38.28125 2.390625 
Q 33.9375 0 27.875 0 
Q 17.828125 0 11.671875 7.65625 
Q 5.515625 15.328125 5.515625 27.984375 
Q 5.515625 40.671875 11.671875 48.328125 
Q 17.828125 56 27.875 56 
Q 33.9375 56 38.28125 53.609375 
Q 42.625 51.21875 45.40625 46.390625 
L 45.40625 54.6875 
L 54.390625 54.6875 
z
" id="DejaVuSans-67"/>
     <path d="M 41.109375 46.296875 
Q 39.59375 47.171875 37.8125 47.578125 
Q 36.03125 48 33.890625 48 
Q 26.265625 48 22.1875 43.046875 
Q 18.109375 38.09375 18.109375 28.8125 
L 18.109375 0 
L 9.078125 0 
L 9.078125 54.6875 
L 18.109375 54.6875 
L 18.109375 46.1875 
Q 20.953125 51.171875 25.484375 53.578125 
Q 30.03125 56 36.53125 56 
Q 37.453125 56 38.578125 55.875 
Q 39.703125 55.765625 41.0625 55.515625 
z
" id="DejaVuSans-72"/>
     <path d="M 52 44.1875 
Q 55.375 50.25 60.0625 53.125 
Q 64.75 56 71.09375 56 
Q 79.640625 56 84.28125 50.015625 
Q 88.921875 44.046875 88.921875 33.015625 
L 88.921875 0 
L 79.890625 0 
L 79.890625 32.71875 
Q 79.890625 40.578125 77.09375 44.375 
Q 74.3125 48.1875 68.609375 48.1875 
Q 61.625 48.1875 57.5625 43.546875 
Q 53.515625 38.921875 53.515625 30.90625 
L 53.515625 0 
L 44.484375 0 
L 44.484375 32.71875 
Q 44.484375 40.625 41.703125 44.40625 
Q 38.921875 48.1875 33.109375 48.1875 
Q 26.21875 48.1875 22.15625 43.53125 
Q 18.109375 38.875 18.109375 30.90625 
L 18.109375 0 
L 9.078125 0 
L 9.078125 54.6875 
L 18.109375 54.6875 
L 18.109375 46.1875 
Q 21.1875 51.21875 25.484375 53.609375 
Q 29.78125 56 35.6875 56 
Q 41.65625 56 45.828125 52.96875 
Q 50 49.953125 52 44.1875 
z
" id="DejaVuSans-6d"/>
    </defs>
    <g transform="translate(271.51875 54.48)scale(0.2 -0.2)">
     <use xlink:href="#DejaVuSans-48"/>
     <use x="75.195312" xlink:href="#DejaVuSans-52"/>
     <use x="144.677734" xlink:href="#DejaVuSans-20"/>
     <use x="176.464844" xlink:href="#DejaVuSans-44"/>
     <use x="253.466797" xlink:href="#DejaVuSans-69"/>
     <use x="281.25" xlink:href="#DejaVuSans-61"/>
     <use x="342.529297" xlink:href="#DejaVuSans-67"/>
     <use x="406.005859" xlink:href="#DejaVuSans-72"/>
     <use x="447.119141" xlink:href="#DejaVuSans-61"/>
     <use x="508.398438" xlink:href="#DejaVuSans-6d"/>
    </g>
   </g>
   <g id="legend_1">
    <g id="patch_7">
     <path d="M 516.7 436 
L 576.2 436 
Q 578.2 436 578.2 434 
L 578.2 361.609375 
Q 578.2 359.609375 576.2 359.609375 
L 516.7 359.609375 
Q 514.7 359.609375 514.7 361.609375 
L 514.7 434 
Q 514.7 436 516.7 436 
z
" style="fill:#ffffff;opacity:0.8;stroke:#cccccc;stroke-linejoin:miter;"/>
    </g>
    <g id="line2d_21">
     <path d="M 518.7 367.707812 
L 538.7 367.707812 
" style="fill:none;stroke:#0000ff;stroke-linecap:square;stroke-width:1.3;"/>
    </g>
    <g id="line2d_22"/>
    <g id="text_14">
     <!-- $25M_{\odot}$ -->
     <defs>
      <path d="M 19.1875 8.296875 
L 53.609375 8.296875 
L 53.609375 0 
L 7.328125 0 
L 7.328125 8.296875 
Q 12.9375 14.109375 22.625 23.890625 
Q 32.328125 33.6875 34.8125 36.53125 
Q 39.546875 41.84375 41.421875 45.53125 
Q 43.3125 49.21875 43.3125 52.78125 
Q 43.3125 58.59375 39.234375 62.25 
Q 35.15625 65.921875 28.609375 65.921875 
Q 23.96875 65.921875 18.8125 64.3125 
Q 13.671875 62.703125 7.8125 59.421875 
L 7.8125 69.390625 
Q 13.765625 71.78125 18.9375 73 
Q 24.125 74.21875 28.421875 74.21875 
Q 39.75 74.21875 46.484375 68.546875 
Q 53.21875 62.890625 53.21875 53.421875 
Q 53.21875 48.921875 51.53125 44.890625 
Q 49.859375 40.875 45.40625 35.40625 
Q 44.1875 33.984375 37.640625 27.21875 
Q 31.109375 20.453125 19.1875 8.296875 
z
" id="DejaVuSans-32"/>
      <path d="M 16.890625 72.90625 
L 31.6875 72.90625 
L 40.1875 23.78125 
L 68.40625 72.90625 
L 83.59375 72.90625 
L 69.390625 0 
L 59.8125 0 
L 72.21875 63.921875 
L 43.609375 14.015625 
L 33.984375 14.015625 
L 24.703125 64.109375 
L 12.3125 0 
L 2.6875 0 
z
" id="DejaVuSans-Oblique-4d"/>
     </defs>
     <g transform="translate(546.7 371.207812)scale(0.1 -0.1)">
      <use transform="translate(0 0.78125)" xlink:href="#DejaVuSans-32"/>
      <use transform="translate(63.623047 0.78125)" xlink:href="#DejaVuSans-35"/>
      <use transform="translate(127.246094 0.78125)" xlink:href="#DejaVuSans-Oblique-4d"/>
      <use transform="translate(213.525391 -15.625)scale(0.7)" xlink:href="#DejaVuSans-2299"/>
     </g>
    </g>
    <g id="line2d_23">
     <path d="M 518.7 382.385937 
L 538.7 382.385937 
" style="fill:none;stroke:#009cb2;stroke-linecap:square;stroke-width:1.3;"/>
    </g>
    <g id="line2d_24"/>
    <g id="text_15">
     <!-- $32M_{\odot}$ -->
     <g transform="translate(546.7 385.885937)scale(0.1 -0.1)">
      <use transform="translate(0 0.78125)" xlink:href="#DejaVuSans-33"/>
      <use transform="translate(63.623047 0.78125)" xlink:href="#DejaVuSans-32"/>
      <use transform="translate(127.246094 0.78125)" xlink:href="#DejaVuSans-Oblique-4d"/>
      <use transform="translate(213.525391 -15.625)scale(0.7)" xlink:href="#DejaVuSans-2299"/>
     </g>
    </g>
    <g id="line2d_25">
     <path d="M 518.7 397.064062 
L 538.7 397.064062 
" style="fill:none;stroke:#008000;stroke-linecap:square;stroke-width:1.3;"/>
    </g>
    <g id="line2d_26"/>
    <g id="text_16">
     <!-- $40M_{\odot}$ -->
     <g transform="translate(546.7 400.564062)scale(0.1 -0.1)">
      <use transform="translate(0 0.78125)" xlink:href="#DejaVuSans-34"/>
      <use transform="translate(63.623047 0.78125)" xlink:href="#DejaVuSans-30"/>
      <use transform="translate(127.246094 0.78125)" xlink:href="#DejaVuSans-Oblique-4d"/>
      <use transform="translate(213.525391 -15.625)scale(0.7)" xlink:href="#DejaVuSans-2299"/>
     </g>
    </g>
    <g id="line2d_27">
     <path d="M 518.7 411.742188 
L 538.7 411.742188 
" style="fill:none;stroke:#bfbf00;stroke-linecap:square;stroke-width:1.3;"/>
    </g>
    <g id="line2d_28"/>
    <g id="text_17">
     <!-- $50M_{\odot}$ -->
     <g transform="translate(546.7 415.242188)scale(0.1 -0.1)">
      <use transform="translate(0 0.78125)" xlink:href="#DejaVuSans-35"/>
      <use transform="translate(63.623047 0.78125)" xlink:href="#DejaVuSans-30"/>
      <use transform="translate(127.246094 0.78125)" xlink:href="#DejaVuSans-Oblique-4d"/>
      <use transform="translate(213.525391 -15.625)scale(0.7)" xlink:href="#DejaVuSans-2299"/>
     </g>
    </g>
    <g id="line2d_29">
     <path d="M 518.7 426.420313 
L 538.7 426.420313 
" style="fill:none;stroke:#ff0000;stroke-linecap:square;stroke-width:1.3;"/>
    </g>
    <g id="line2d_30"/>
    <g id="text_18">
     <!-- $60M_{\odot}$ -->
     <g transform="translate(546.7 429.920313)scale(0.1 -0.1)">
      <use transform="translate(0 0.78125)" xlink:href="#DejaVuSans-36"/>
      <use transform="translate(63.623047 0.78125)" xlink:href="#DejaVuSans-30"/>
      <use transform="translate(127.246094 0.78125)" xlink:href="#DejaVuSans-Oblique-4d"/>
      <use transform="translate(213.525391 -15.625)scale(0.7)" xlink:href="#DejaVuSans-2299"/>
     </g>
    </g>
   </g>
  </g>
 </g>
 <defs>
  <clipPath id="pbb0cc6a3af">
   <rect height="380.52" width="502.2" x="81" y="60.48"/>
  </clipPath>
 </defs>
</svg>
