<?xml version="1.0" encoding="utf-8" standalone="no"?>
<!DOCTYPE svg PUBLIC "-//W3C//DTD SVG 1.1//EN"
  "http://www.w3.org/Graphics/SVG/1.1/DTD/svg11.dtd">
<!-- Created with matplotlib (http://matplotlib.org/) -->
<svg height="504pt" version="1.1" viewBox="0 0 648 504" width="648pt" xmlns="http://www.w3.org/2000/svg" xmlns:xlink="http://www.w3.org/1999/xlink">
 <defs>
  <style type="text/css">
*{stroke-linecap:butt;stroke-linejoin:round;}
  </style>
 </defs>
 <g id="figure_1">
  <g id="patch_1">
   <path d="M 0 504 
L 648 504 
L 648 0 
L 0 0 
z
" style="fill:#ffffff;"/>
  </g>
  <g id="axes_1">
   <g id="patch_2">
    <path d="M 81 441 
L 583.2 441 
L 583.2 60.48 
L 81 60.48 
z
" style="fill:#ffffff;"/>
   </g>
   <g id="matplotlib.axis_1">
    <g id="xtick_1">
     <g id="line2d_1">
      <path clip-path="url(#p561e554c60)" d="M 583.2 441 
L 583.2 60.48 
" style="fill:none;stroke:#808080;stroke-dasharray:1.85,0.8;stroke-dashoffset:0;stroke-width:0.5;"/>
     </g>
     <g id="line2d_2">
      <defs>
       <path d="M 0 0 
L 0 3 
" id="m2a7c84d076" style="stroke:#000000;"/>
      </defs>
      <g>
       <use style="stroke:#000000;" x="583.2" xlink:href="#m2a7c84d076" y="441"/>
      </g>
     </g>
     <g id="text_1">
      <!-- 4.40 -->
      <defs>
       <path d="M 37.796875 64.3125 
L 12.890625 25.390625 
L 37.796875 25.390625 
z
M 35.203125 72.90625 
L 47.609375 72.90625 
L 47.609375 25.390625 
L 58.015625 25.390625 
L 58.015625 17.1875 
L 47.609375 17.1875 
L 47.609375 0 
L 37.796875 0 
L 37.796875 17.1875 
L 4.890625 17.1875 
L 4.890625 26.703125 
z
" id="DejaVuSans-34"/>
       <path d="M 10.6875 12.40625 
L 21 12.40625 
L 21 0 
L 10.6875 0 
z
" id="DejaVuSans-2e"/>
       <path d="M 31.78125 66.40625 
Q 24.171875 66.40625 20.328125 58.90625 
Q 16.5 51.421875 16.5 36.375 
Q 16.5 21.390625 20.328125 13.890625 
Q 24.171875 6.390625 31.78125 6.390625 
Q 39.453125 6.390625 43.28125 13.890625 
Q 47.125 21.390625 47.125 36.375 
Q 47.125 51.421875 43.28125 58.90625 
Q 39.453125 66.40625 31.78125 66.40625 
z
M 31.78125 74.21875 
Q 44.046875 74.21875 50.515625 64.515625 
Q 56.984375 54.828125 56.984375 36.375 
Q 56.984375 17.96875 50.515625 8.265625 
Q 44.046875 -1.421875 31.78125 -1.421875 
Q 19.53125 -1.421875 13.0625 8.265625 
Q 6.59375 17.96875 6.59375 36.375 
Q 6.59375 54.828125 13.0625 64.515625 
Q 19.53125 74.21875 31.78125 74.21875 
z
" id="DejaVuSans-30"/>
      </defs>
      <g transform="translate(560.934375 462.696875)scale(0.2 -0.2)">
       <use xlink:href="#DejaVuSans-34"/>
       <use x="63.623047" xlink:href="#DejaVuSans-2e"/>
       <use x="95.410156" xlink:href="#DejaVuSans-34"/>
       <use x="159.033203" xlink:href="#DejaVuSans-30"/>
      </g>
     </g>
    </g>
    <g id="xtick_2">
     <g id="line2d_3">
      <path clip-path="url(#p561e554c60)" d="M 499.5 441 
L 499.5 60.48 
" style="fill:none;stroke:#808080;stroke-dasharray:1.85,0.8;stroke-dashoffset:0;stroke-width:0.5;"/>
     </g>
     <g id="line2d_4">
      <g>
       <use style="stroke:#000000;" x="499.5" xlink:href="#m2a7c84d076" y="441"/>
      </g>
     </g>
     <g id="text_2">
      <!-- 4.45 -->
      <defs>
       <path d="M 10.796875 72.90625 
L 49.515625 72.90625 
L 49.515625 64.59375 
L 19.828125 64.59375 
L 19.828125 46.734375 
Q 21.96875 47.46875 24.109375 47.828125 
Q 26.265625 48.1875 28.421875 48.1875 
Q 40.625 48.1875 47.75 41.5 
Q 54.890625 34.8125 54.890625 23.390625 
Q 54.890625 11.625 47.5625 5.09375 
Q 40.234375 -1.421875 26.90625 -1.421875 
Q 22.3125 -1.421875 17.546875 -0.640625 
Q 12.796875 0.140625 7.71875 1.703125 
L 7.71875 11.625 
Q 12.109375 9.234375 16.796875 8.0625 
Q 21.484375 6.890625 26.703125 6.890625 
Q 35.15625 6.890625 40.078125 11.328125 
Q 45.015625 15.765625 45.015625 23.390625 
Q 45.015625 31 40.078125 35.4375 
Q 35.15625 39.890625 26.703125 39.890625 
Q 22.75 39.890625 18.8125 39.015625 
Q 14.890625 38.140625 10.796875 36.28125 
z
" id="DejaVuSans-35"/>
      </defs>
      <g transform="translate(477.234375 462.696875)scale(0.2 -0.2)">
       <use xlink:href="#DejaVuSans-34"/>
       <use x="63.623047" xlink:href="#DejaVuSans-2e"/>
       <use x="95.410156" xlink:href="#DejaVuSans-34"/>
       <use x="159.033203" xlink:href="#DejaVuSans-35"/>
      </g>
     </g>
    </g>
    <g id="xtick_3">
     <g id="line2d_5">
      <path clip-path="url(#p561e554c60)" d="M 415.8 441 
L 415.8 60.48 
" style="fill:none;stroke:#808080;stroke-dasharray:1.85,0.8;stroke-dashoffset:0;stroke-width:0.5;"/>
     </g>
     <g id="line2d_6">
      <g>
       <use style="stroke:#000000;" x="415.8" xlink:href="#m2a7c84d076" y="441"/>
      </g>
     </g>
     <g id="text_3">
      <!-- 4.50 -->
      <g transform="translate(393.534375 462.696875)scale(0.2 -0.2)">
       <use xlink:href="#DejaVuSans-34"/>
       <use x="63.623047" xlink:href="#DejaVuSans-2e"/>
       <use x="95.410156" xlink:href="#DejaVuSans-35"/>
       <use x="159.033203" xlink:href="#DejaVuSans-30"/>
      </g>
     </g>
    </g>
    <g id="xtick_4">
     <g id="line2d_7">
      <path clip-path="url(#p561e554c60)" d="M 332.1 441 
L 332.1 60.48 
" style="fill:none;stroke:#808080;stroke-dasharray:1.85,0.8;stroke-dashoffset:0;stroke-width:0.5;"/>
     </g>
     <g id="line2d_8">
      <g>
       <use style="stroke:#000000;" x="332.1" xlink:href="#m2a7c84d076" y="441"/>
      </g>
     </g>
     <g id="text_4">
      <!-- 4.55 -->
      <g transform="translate(309.834375 462.696875)scale(0.2 -0.2)">
       <use xlink:href="#DejaVuSans-34"/>
       <use x="63.623047" xlink:href="#DejaVuSans-2e"/>
       <use x="95.410156" xlink:href="#DejaVuSans-35"/>
       <use x="159.033203" xlink:href="#DejaVuSans-35"/>
      </g>
     </g>
    </g>
    <g id="xtick_5">
     <g id="line2d_9">
      <path clip-path="url(#p561e554c60)" d="M 248.4 441 
L 248.4 60.48 
" style="fill:none;stroke:#808080;stroke-dasharray:1.85,0.8;stroke-dashoffset:0;stroke-width:0.5;"/>
     </g>
     <g id="line2d_10">
      <g>
       <use style="stroke:#000000;" x="248.4" xlink:href="#m2a7c84d076" y="441"/>
      </g>
     </g>
     <g id="text_5">
      <!-- 4.60 -->
      <defs>
       <path d="M 33.015625 40.375 
Q 26.375 40.375 22.484375 35.828125 
Q 18.609375 31.296875 18.609375 23.390625 
Q 18.609375 15.53125 22.484375 10.953125 
Q 26.375 6.390625 33.015625 6.390625 
Q 39.65625 6.390625 43.53125 10.953125 
Q 47.40625 15.53125 47.40625 23.390625 
Q 47.40625 31.296875 43.53125 35.828125 
Q 39.65625 40.375 33.015625 40.375 
z
M 52.59375 71.296875 
L 52.59375 62.3125 
Q 48.875 64.0625 45.09375 64.984375 
Q 41.3125 65.921875 37.59375 65.921875 
Q 27.828125 65.921875 22.671875 59.328125 
Q 17.53125 52.734375 16.796875 39.40625 
Q 19.671875 43.65625 24.015625 45.921875 
Q 28.375 48.1875 33.59375 48.1875 
Q 44.578125 48.1875 50.953125 41.515625 
Q 57.328125 34.859375 57.328125 23.390625 
Q 57.328125 12.15625 50.6875 5.359375 
Q 44.046875 -1.421875 33.015625 -1.421875 
Q 20.359375 -1.421875 13.671875 8.265625 
Q 6.984375 17.96875 6.984375 36.375 
Q 6.984375 53.65625 15.1875 63.9375 
Q 23.390625 74.21875 37.203125 74.21875 
Q 40.921875 74.21875 44.703125 73.484375 
Q 48.484375 72.75 52.59375 71.296875 
z
" id="DejaVuSans-36"/>
      </defs>
      <g transform="translate(226.134375 462.696875)scale(0.2 -0.2)">
       <use xlink:href="#DejaVuSans-34"/>
       <use x="63.623047" xlink:href="#DejaVuSans-2e"/>
       <use x="95.410156" xlink:href="#DejaVuSans-36"/>
       <use x="159.033203" xlink:href="#DejaVuSans-30"/>
      </g>
     </g>
    </g>
    <g id="xtick_6">
     <g id="line2d_11">
      <path clip-path="url(#p561e554c60)" d="M 164.7 441 
L 164.7 60.48 
" style="fill:none;stroke:#808080;stroke-dasharray:1.85,0.8;stroke-dashoffset:0;stroke-width:0.5;"/>
     </g>
     <g id="line2d_12">
      <g>
       <use style="stroke:#000000;" x="164.7" xlink:href="#m2a7c84d076" y="441"/>
      </g>
     </g>
     <g id="text_6">
      <!-- 4.65 -->
      <g transform="translate(142.434375 462.696875)scale(0.2 -0.2)">
       <use xlink:href="#DejaVuSans-34"/>
       <use x="63.623047" xlink:href="#DejaVuSans-2e"/>
       <use x="95.410156" xlink:href="#DejaVuSans-36"/>
       <use x="159.033203" xlink:href="#DejaVuSans-35"/>
      </g>
     </g>
    </g>
    <g id="xtick_7">
     <g id="line2d_13">
      <path clip-path="url(#p561e554c60)" d="M 81 441 
L 81 60.48 
" style="fill:none;stroke:#808080;stroke-dasharray:1.85,0.8;stroke-dashoffset:0;stroke-width:0.5;"/>
     </g>
     <g id="line2d_14">
      <g>
       <use style="stroke:#000000;" x="81" xlink:href="#m2a7c84d076" y="441"/>
      </g>
     </g>
     <g id="text_7">
      <!-- 4.70 -->
      <defs>
       <path d="M 8.203125 72.90625 
L 55.078125 72.90625 
L 55.078125 68.703125 
L 28.609375 0 
L 18.3125 0 
L 43.21875 64.59375 
L 8.203125 64.59375 
z
" id="DejaVuSans-37"/>
      </defs>
      <g transform="translate(58.734375 462.696875)scale(0.2 -0.2)">
       <use xlink:href="#DejaVuSans-34"/>
       <use x="63.623047" xlink:href="#DejaVuSans-2e"/>
       <use x="95.410156" xlink:href="#DejaVuSans-37"/>
       <use x="159.033203" xlink:href="#DejaVuSans-30"/>
      </g>
     </g>
    </g>
    <g id="text_8">
     <!-- $Log(T_{eff}/K)$ -->
     <defs>
      <path d="M 16.796875 72.90625 
L 26.703125 72.90625 
L 14.203125 8.203125 
L 49.703125 8.203125 
L 48.09375 0 
L 2.6875 0 
z
" id="DejaVuSans-Oblique-4c"/>
      <path d="M 25.390625 -1.421875 
Q 15.765625 -1.421875 10.171875 4.515625 
Q 4.59375 10.453125 4.59375 20.703125 
Q 4.59375 26.65625 6.515625 32.828125 
Q 8.453125 39.015625 11.53125 43.21875 
Q 16.359375 49.75 22.3125 52.875 
Q 28.265625 56 35.796875 56 
Q 45.125 56 50.859375 50.1875 
Q 56.59375 44.390625 56.59375 35.015625 
Q 56.59375 28.515625 54.6875 22.0625 
Q 52.78125 15.625 49.703125 11.375 
Q 44.921875 4.828125 38.96875 1.703125 
Q 33.015625 -1.421875 25.390625 -1.421875 
z
M 13.921875 21 
Q 13.921875 13.578125 17.015625 9.890625 
Q 20.125 6.203125 26.421875 6.203125 
Q 35.453125 6.203125 41.375 14.078125 
Q 47.3125 21.96875 47.3125 34.078125 
Q 47.3125 41.15625 44.140625 44.765625 
Q 40.96875 48.390625 34.8125 48.390625 
Q 29.734375 48.390625 25.78125 46.015625 
Q 21.828125 43.65625 18.703125 38.8125 
Q 16.40625 35.203125 15.15625 30.5625 
Q 13.921875 25.921875 13.921875 21 
z
" id="DejaVuSans-Oblique-6f"/>
      <path d="M 59.625 54.6875 
L 50.296875 6.78125 
Q 47.609375 -7.125 40.015625 -13.953125 
Q 32.421875 -20.796875 19.578125 -20.796875 
Q 14.84375 -20.796875 10.78125 -20.09375 
Q 6.734375 -19.390625 3.21875 -17.921875 
L 4.890625 -9.1875 
Q 8.203125 -11.328125 11.90625 -12.34375 
Q 15.625 -13.375 19.828125 -13.375 
Q 28.375 -13.375 33.859375 -8.703125 
Q 39.359375 -4.046875 41.109375 4.6875 
L 41.890625 8.796875 
Q 38.140625 4.5 33.15625 2.25 
Q 28.171875 0 22.40625 0 
Q 14.109375 0 9.34375 5.484375 
Q 4.59375 10.984375 4.59375 20.609375 
Q 4.59375 28.171875 7.46875 35.421875 
Q 10.359375 42.671875 15.578125 48.296875 
Q 19.046875 52 23.65625 54 
Q 28.265625 56 33.296875 56 
Q 38.8125 56 42.90625 53.4375 
Q 47.015625 50.875 49.03125 46.1875 
L 50.59375 54.6875 
z
M 46.09375 34.625 
Q 46.09375 41.265625 42.96875 44.875 
Q 39.84375 48.484375 34.078125 48.484375 
Q 30.515625 48.484375 27.296875 47.0625 
Q 24.078125 45.65625 21.78125 43.109375 
Q 18.0625 38.921875 15.984375 33.234375 
Q 13.921875 27.546875 13.921875 21.484375 
Q 13.921875 14.75 17.0625 11.125 
Q 20.21875 7.515625 26.125 7.515625 
Q 34.671875 7.515625 40.375 15.25 
Q 46.09375 23 46.09375 34.625 
z
" id="DejaVuSans-Oblique-67"/>
      <path d="M 31 75.875 
Q 24.46875 64.65625 21.28125 53.65625 
Q 18.109375 42.671875 18.109375 31.390625 
Q 18.109375 20.125 21.3125 9.0625 
Q 24.515625 -2 31 -13.1875 
L 23.1875 -13.1875 
Q 15.875 -1.703125 12.234375 9.375 
Q 8.59375 20.453125 8.59375 31.390625 
Q 8.59375 42.28125 12.203125 53.3125 
Q 15.828125 64.359375 23.1875 75.875 
z
" id="DejaVuSans-28"/>
      <path d="M 5.90625 72.90625 
L 67.578125 72.90625 
L 66.015625 64.59375 
L 39.984375 64.59375 
L 27.484375 0 
L 17.578125 0 
L 30.078125 64.59375 
L 4.296875 64.59375 
z
" id="DejaVuSans-Oblique-54"/>
      <path d="M 48.09375 32.234375 
Q 48.25 33.015625 48.3125 33.84375 
Q 48.390625 34.671875 48.390625 35.5 
Q 48.390625 41.453125 44.890625 44.921875 
Q 41.40625 48.390625 35.40625 48.390625 
Q 28.71875 48.390625 23.578125 44.15625 
Q 18.453125 39.9375 15.828125 32.171875 
z
M 55.90625 25.203125 
L 14.109375 25.203125 
Q 13.8125 23.34375 13.71875 22.265625 
Q 13.625 21.1875 13.625 20.40625 
Q 13.625 13.625 17.796875 9.90625 
Q 21.96875 6.203125 29.59375 6.203125 
Q 35.453125 6.203125 40.671875 7.515625 
Q 45.90625 8.84375 50.390625 11.375 
L 48.6875 2.484375 
Q 43.84375 0.53125 38.6875 -0.4375 
Q 33.546875 -1.421875 28.21875 -1.421875 
Q 16.84375 -1.421875 10.71875 4.015625 
Q 4.59375 9.46875 4.59375 19.484375 
Q 4.59375 28.03125 7.640625 35.375 
Q 10.6875 42.71875 16.609375 48.484375 
Q 20.40625 52.09375 25.65625 54.046875 
Q 30.90625 56 36.8125 56 
Q 46.09375 56 51.578125 50.4375 
Q 57.078125 44.875 57.078125 35.5 
Q 57.078125 33.25 56.78125 30.6875 
Q 56.5 28.125 55.90625 25.203125 
z
" id="DejaVuSans-Oblique-65"/>
      <path d="M 47.796875 75.984375 
L 46.390625 68.5 
L 37.796875 68.5 
Q 32.90625 68.5 30.6875 66.578125 
Q 28.46875 64.65625 27.390625 59.515625 
L 26.421875 54.6875 
L 41.21875 54.6875 
L 39.890625 47.703125 
L 25.09375 47.703125 
L 15.828125 0 
L 6.78125 0 
L 16.109375 47.703125 
L 7.515625 47.703125 
L 8.796875 54.6875 
L 17.390625 54.6875 
L 18.109375 58.5 
Q 19.96875 68.171875 24.625 72.078125 
Q 29.296875 75.984375 39.3125 75.984375 
z
" id="DejaVuSans-Oblique-66"/>
      <path d="M 25.390625 72.90625 
L 33.6875 72.90625 
L 8.296875 -9.28125 
L 0 -9.28125 
z
" id="DejaVuSans-2f"/>
      <path d="M 16.890625 72.90625 
L 26.8125 72.90625 
L 20.796875 42.1875 
L 59.078125 72.90625 
L 72.21875 72.90625 
L 28.90625 38.09375 
L 60.59375 0 
L 48.578125 0 
L 19.484375 35.5 
L 12.59375 0 
L 2.6875 0 
z
" id="DejaVuSans-Oblique-4b"/>
      <path d="M 8.015625 75.875 
L 15.828125 75.875 
Q 23.140625 64.359375 26.78125 53.3125 
Q 30.421875 42.28125 30.421875 31.390625 
Q 30.421875 20.453125 26.78125 9.375 
Q 23.140625 -1.703125 15.828125 -13.1875 
L 8.015625 -13.1875 
Q 14.5 -2 17.703125 9.0625 
Q 20.90625 20.125 20.90625 31.390625 
Q 20.90625 42.671875 17.703125 53.65625 
Q 14.5 64.65625 8.015625 75.875 
z
" id="DejaVuSans-29"/>
     </defs>
     <g transform="translate(280.7 486.05625)scale(0.2 -0.2)">
      <use transform="translate(0 0.125)" xlink:href="#DejaVuSans-Oblique-4c"/>
      <use transform="translate(55.712891 0.125)" xlink:href="#DejaVuSans-Oblique-6f"/>
      <use transform="translate(116.894531 0.125)" xlink:href="#DejaVuSans-Oblique-67"/>
      <use transform="translate(180.371094 0.125)" xlink:href="#DejaVuSans-28"/>
      <use transform="translate(219.384766 0.125)" xlink:href="#DejaVuSans-Oblique-54"/>
      <use transform="translate(280.46875 -16.28125)scale(0.7)" xlink:href="#DejaVuSans-Oblique-65"/>
      <use transform="translate(323.535156 -16.28125)scale(0.7)" xlink:href="#DejaVuSans-Oblique-66"/>
      <use transform="translate(348.178711 -16.28125)scale(0.7)" xlink:href="#DejaVuSans-Oblique-66"/>
      <use transform="translate(375.556641 0.125)" xlink:href="#DejaVuSans-2f"/>
      <use transform="translate(409.248047 0.125)" xlink:href="#DejaVuSans-Oblique-4b"/>
      <use transform="translate(474.824219 0.125)" xlink:href="#DejaVuSans-29"/>
     </g>
    </g>
   </g>
   <g id="matplotlib.axis_2">
    <g id="ytick_1">
     <g id="line2d_15">
      <path clip-path="url(#p561e554c60)" d="M 81 441 
L 583.2 441 
" style="fill:none;stroke:#808080;stroke-dasharray:1.85,0.8;stroke-dashoffset:0;stroke-width:0.5;"/>
     </g>
     <g id="line2d_16">
      <defs>
       <path d="M 0 0 
L -3 0 
" id="m986b99b5d7" style="stroke:#000000;"/>
      </defs>
      <g>
       <use style="stroke:#000000;" x="81" xlink:href="#m986b99b5d7" y="441"/>
      </g>
     </g>
     <g id="text_9">
      <!-- 2.50 -->
      <defs>
       <path d="M 19.1875 8.296875 
L 53.609375 8.296875 
L 53.609375 0 
L 7.328125 0 
L 7.328125 8.296875 
Q 12.9375 14.109375 22.625 23.890625 
Q 32.328125 33.6875 34.8125 36.53125 
Q 39.546875 41.84375 41.421875 45.53125 
Q 43.3125 49.21875 43.3125 52.78125 
Q 43.3125 58.59375 39.234375 62.25 
Q 35.15625 65.921875 28.609375 65.921875 
Q 23.96875 65.921875 18.8125 64.3125 
Q 13.671875 62.703125 7.8125 59.421875 
L 7.8125 69.390625 
Q 13.765625 71.78125 18.9375 73 
Q 24.125 74.21875 28.421875 74.21875 
Q 39.75 74.21875 46.484375 68.546875 
Q 53.21875 62.890625 53.21875 53.421875 
Q 53.21875 48.921875 51.53125 44.890625 
Q 49.859375 40.875 45.40625 35.40625 
Q 44.1875 33.984375 37.640625 27.21875 
Q 31.109375 20.453125 19.1875 8.296875 
z
" id="DejaVuSans-32"/>
      </defs>
      <g transform="translate(29.96875 448.598437)scale(0.2 -0.2)">
       <use xlink:href="#DejaVuSans-32"/>
       <use x="63.623047" xlink:href="#DejaVuSans-2e"/>
       <use x="95.410156" xlink:href="#DejaVuSans-35"/>
       <use x="159.033203" xlink:href="#DejaVuSans-30"/>
      </g>
     </g>
    </g>
    <g id="ytick_2">
     <g id="line2d_17">
      <path clip-path="url(#p561e554c60)" d="M 81 393.435 
L 583.2 393.435 
" style="fill:none;stroke:#808080;stroke-dasharray:1.85,0.8;stroke-dashoffset:0;stroke-width:0.5;"/>
     </g>
     <g id="line2d_18">
      <g>
       <use style="stroke:#000000;" x="81" xlink:href="#m986b99b5d7" y="393.435"/>
      </g>
     </g>
     <g id="text_10">
      <!-- 2.75 -->
      <g transform="translate(29.96875 401.033438)scale(0.2 -0.2)">
       <use xlink:href="#DejaVuSans-32"/>
       <use x="63.623047" xlink:href="#DejaVuSans-2e"/>
       <use x="95.410156" xlink:href="#DejaVuSans-37"/>
       <use x="159.033203" xlink:href="#DejaVuSans-35"/>
      </g>
     </g>
    </g>
    <g id="ytick_3">
     <g id="line2d_19">
      <path clip-path="url(#p561e554c60)" d="M 81 345.87 
L 583.2 345.87 
" style="fill:none;stroke:#808080;stroke-dasharray:1.85,0.8;stroke-dashoffset:0;stroke-width:0.5;"/>
     </g>
     <g id="line2d_20">
      <g>
       <use style="stroke:#000000;" x="81" xlink:href="#m986b99b5d7" y="345.87"/>
      </g>
     </g>
     <g id="text_11">
      <!-- 3.00 -->
      <defs>
       <path d="M 40.578125 39.3125 
Q 47.65625 37.796875 51.625 33 
Q 55.609375 28.21875 55.609375 21.1875 
Q 55.609375 10.40625 48.1875 4.484375 
Q 40.765625 -1.421875 27.09375 -1.421875 
Q 22.515625 -1.421875 17.65625 -0.515625 
Q 12.796875 0.390625 7.625 2.203125 
L 7.625 11.71875 
Q 11.71875 9.328125 16.59375 8.109375 
Q 21.484375 6.890625 26.8125 6.890625 
Q 36.078125 6.890625 40.9375 10.546875 
Q 45.796875 14.203125 45.796875 21.1875 
Q 45.796875 27.640625 41.28125 31.265625 
Q 36.765625 34.90625 28.71875 34.90625 
L 20.21875 34.90625 
L 20.21875 43.015625 
L 29.109375 43.015625 
Q 36.375 43.015625 40.234375 45.921875 
Q 44.09375 48.828125 44.09375 54.296875 
Q 44.09375 59.90625 40.109375 62.90625 
Q 36.140625 65.921875 28.71875 65.921875 
Q 24.65625 65.921875 20.015625 65.03125 
Q 15.375 64.15625 9.8125 62.3125 
L 9.8125 71.09375 
Q 15.4375 72.65625 20.34375 73.4375 
Q 25.25 74.21875 29.59375 74.21875 
Q 40.828125 74.21875 47.359375 69.109375 
Q 53.90625 64.015625 53.90625 55.328125 
Q 53.90625 49.265625 50.4375 45.09375 
Q 46.96875 40.921875 40.578125 39.3125 
z
" id="DejaVuSans-33"/>
      </defs>
      <g transform="translate(29.96875 353.468437)scale(0.2 -0.2)">
       <use xlink:href="#DejaVuSans-33"/>
       <use x="63.623047" xlink:href="#DejaVuSans-2e"/>
       <use x="95.410156" xlink:href="#DejaVuSans-30"/>
       <use x="159.033203" xlink:href="#DejaVuSans-30"/>
      </g>
     </g>
    </g>
    <g id="ytick_4">
     <g id="line2d_21">
      <path clip-path="url(#p561e554c60)" d="M 81 298.305 
L 583.2 298.305 
" style="fill:none;stroke:#808080;stroke-dasharray:1.85,0.8;stroke-dashoffset:0;stroke-width:0.5;"/>
     </g>
     <g id="line2d_22">
      <g>
       <use style="stroke:#000000;" x="81" xlink:href="#m986b99b5d7" y="298.305"/>
      </g>
     </g>
     <g id="text_12">
      <!-- 3.25 -->
      <g transform="translate(29.96875 305.903437)scale(0.2 -0.2)">
       <use xlink:href="#DejaVuSans-33"/>
       <use x="63.623047" xlink:href="#DejaVuSans-2e"/>
       <use x="95.410156" xlink:href="#DejaVuSans-32"/>
       <use x="159.033203" xlink:href="#DejaVuSans-35"/>
      </g>
     </g>
    </g>
    <g id="ytick_5">
     <g id="line2d_23">
      <path clip-path="url(#p561e554c60)" d="M 81 250.74 
L 583.2 250.74 
" style="fill:none;stroke:#808080;stroke-dasharray:1.85,0.8;stroke-dashoffset:0;stroke-width:0.5;"/>
     </g>
     <g id="line2d_24">
      <g>
       <use style="stroke:#000000;" x="81" xlink:href="#m986b99b5d7" y="250.74"/>
      </g>
     </g>
     <g id="text_13">
      <!-- 3.50 -->
      <g transform="translate(29.96875 258.338437)scale(0.2 -0.2)">
       <use xlink:href="#DejaVuSans-33"/>
       <use x="63.623047" xlink:href="#DejaVuSans-2e"/>
       <use x="95.410156" xlink:href="#DejaVuSans-35"/>
       <use x="159.033203" xlink:href="#DejaVuSans-30"/>
      </g>
     </g>
    </g>
    <g id="ytick_6">
     <g id="line2d_25">
      <path clip-path="url(#p561e554c60)" d="M 81 203.175 
L 583.2 203.175 
" style="fill:none;stroke:#808080;stroke-dasharray:1.85,0.8;stroke-dashoffset:0;stroke-width:0.5;"/>
     </g>
     <g id="line2d_26">
      <g>
       <use style="stroke:#000000;" x="81" xlink:href="#m986b99b5d7" y="203.175"/>
      </g>
     </g>
     <g id="text_14">
      <!-- 3.75 -->
      <g transform="translate(29.96875 210.773438)scale(0.2 -0.2)">
       <use xlink:href="#DejaVuSans-33"/>
       <use x="63.623047" xlink:href="#DejaVuSans-2e"/>
       <use x="95.410156" xlink:href="#DejaVuSans-37"/>
       <use x="159.033203" xlink:href="#DejaVuSans-35"/>
      </g>
     </g>
    </g>
    <g id="ytick_7">
     <g id="line2d_27">
      <path clip-path="url(#p561e554c60)" d="M 81 155.61 
L 583.2 155.61 
" style="fill:none;stroke:#808080;stroke-dasharray:1.85,0.8;stroke-dashoffset:0;stroke-width:0.5;"/>
     </g>
     <g id="line2d_28">
      <g>
       <use style="stroke:#000000;" x="81" xlink:href="#m986b99b5d7" y="155.61"/>
      </g>
     </g>
     <g id="text_15">
      <!-- 4.00 -->
      <g transform="translate(29.96875 163.208438)scale(0.2 -0.2)">
       <use xlink:href="#DejaVuSans-34"/>
       <use x="63.623047" xlink:href="#DejaVuSans-2e"/>
       <use x="95.410156" xlink:href="#DejaVuSans-30"/>
       <use x="159.033203" xlink:href="#DejaVuSans-30"/>
      </g>
     </g>
    </g>
    <g id="ytick_8">
     <g id="line2d_29">
      <path clip-path="url(#p561e554c60)" d="M 81 108.045 
L 583.2 108.045 
" style="fill:none;stroke:#808080;stroke-dasharray:1.85,0.8;stroke-dashoffset:0;stroke-width:0.5;"/>
     </g>
     <g id="line2d_30">
      <g>
       <use style="stroke:#000000;" x="81" xlink:href="#m986b99b5d7" y="108.045"/>
      </g>
     </g>
     <g id="text_16">
      <!-- 4.25 -->
      <g transform="translate(29.96875 115.643437)scale(0.2 -0.2)">
       <use xlink:href="#DejaVuSans-34"/>
       <use x="63.623047" xlink:href="#DejaVuSans-2e"/>
       <use x="95.410156" xlink:href="#DejaVuSans-32"/>
       <use x="159.033203" xlink:href="#DejaVuSans-35"/>
      </g>
     </g>
    </g>
    <g id="ytick_9">
     <g id="line2d_31">
      <path clip-path="url(#p561e554c60)" d="M 81 60.48 
L 583.2 60.48 
" style="fill:none;stroke:#808080;stroke-dasharray:1.85,0.8;stroke-dashoffset:0;stroke-width:0.5;"/>
     </g>
     <g id="line2d_32">
      <g>
       <use style="stroke:#000000;" x="81" xlink:href="#m986b99b5d7" y="60.48"/>
      </g>
     </g>
     <g id="text_17">
      <!-- 4.50 -->
      <g transform="translate(29.96875 68.078438)scale(0.2 -0.2)">
       <use xlink:href="#DejaVuSans-34"/>
       <use x="63.623047" xlink:href="#DejaVuSans-2e"/>
       <use x="95.410156" xlink:href="#DejaVuSans-35"/>
       <use x="159.033203" xlink:href="#DejaVuSans-30"/>
      </g>
     </g>
    </g>
    <g id="text_18">
     <!-- $Log(g/cm \cdot s^{-2} )$ -->
     <defs>
      <path d="M 53.609375 52.59375 
L 51.8125 43.703125 
Q 48.578125 46.046875 44.9375 47.21875 
Q 41.3125 48.390625 37.40625 48.390625 
Q 33.109375 48.390625 29.21875 46.875 
Q 25.34375 45.359375 22.703125 42.578125 
Q 18.5 38.328125 16.203125 32.609375 
Q 13.921875 26.90625 13.921875 20.796875 
Q 13.921875 13.421875 17.609375 9.8125 
Q 21.296875 6.203125 28.8125 6.203125 
Q 32.515625 6.203125 36.6875 7.328125 
Q 40.875 8.453125 45.40625 10.6875 
L 43.703125 1.8125 
Q 39.796875 0.203125 35.671875 -0.609375 
Q 31.546875 -1.421875 27.203125 -1.421875 
Q 16.3125 -1.421875 10.453125 4.015625 
Q 4.59375 9.46875 4.59375 19.578125 
Q 4.59375 28.078125 7.640625 35.234375 
Q 10.6875 42.390625 16.703125 48.09375 
Q 20.796875 52 26.3125 54 
Q 31.84375 56 38.375 56 
Q 42.1875 56 45.9375 55.140625 
Q 49.703125 54.296875 53.609375 52.59375 
z
" id="DejaVuSans-Oblique-63"/>
      <path d="M 89.796875 33.015625 
L 83.40625 0 
L 74.421875 0 
L 80.71875 32.71875 
Q 81.109375 34.8125 81.296875 36.328125 
Q 81.5 37.84375 81.5 38.921875 
Q 81.5 43.3125 79.046875 45.75 
Q 76.609375 48.1875 72.21875 48.1875 
Q 65.671875 48.1875 60.546875 43.28125 
Q 55.421875 38.375 53.90625 30.515625 
L 47.90625 0 
L 38.921875 0 
L 45.3125 32.71875 
Q 45.703125 34.515625 45.890625 36.046875 
Q 46.09375 37.59375 46.09375 38.8125 
Q 46.09375 43.265625 43.65625 45.71875 
Q 41.21875 48.1875 36.921875 48.1875 
Q 30.28125 48.1875 25.140625 43.28125 
Q 20.015625 38.375 18.5 30.515625 
L 12.5 0 
L 3.515625 0 
L 14.203125 54.6875 
L 23.1875 54.6875 
L 21.484375 46.1875 
Q 25.140625 50.984375 30.046875 53.484375 
Q 34.96875 56 40.578125 56 
Q 46.53125 56 50.359375 52.875 
Q 54.203125 49.75 54.984375 44.1875 
Q 59.078125 49.953125 64.46875 52.96875 
Q 69.875 56 75.875 56 
Q 82.90625 56 86.734375 51.953125 
Q 90.578125 47.90625 90.578125 40.484375 
Q 90.578125 38.875 90.375 36.9375 
Q 90.1875 35.015625 89.796875 33.015625 
z
" id="DejaVuSans-Oblique-6d"/>
      <path d="M 10.6875 40.921875 
L 21 40.921875 
L 21 28.515625 
L 10.6875 28.515625 
z
" id="DejaVuSans-22c5"/>
      <path d="M 50 53.078125 
L 48.296875 44.578125 
Q 44.734375 46.53125 40.765625 47.5 
Q 36.8125 48.484375 32.625 48.484375 
Q 25.53125 48.484375 21.453125 46.0625 
Q 17.390625 43.65625 17.390625 39.5 
Q 17.390625 34.671875 26.859375 32.078125 
Q 27.59375 31.890625 27.9375 31.78125 
L 30.8125 30.90625 
Q 39.796875 28.421875 42.796875 25.6875 
Q 45.796875 22.953125 45.796875 18.21875 
Q 45.796875 9.515625 38.890625 4.046875 
Q 31.984375 -1.421875 20.796875 -1.421875 
Q 16.453125 -1.421875 11.671875 -0.578125 
Q 6.890625 0.25 1.125 2 
L 2.875 11.28125 
Q 7.8125 8.734375 12.59375 7.421875 
Q 17.390625 6.109375 21.78125 6.109375 
Q 28.375 6.109375 32.5 8.9375 
Q 36.625 11.765625 36.625 16.109375 
Q 36.625 20.796875 25.78125 23.6875 
L 24.859375 23.921875 
L 21.78125 24.703125 
Q 14.9375 26.515625 11.765625 29.46875 
Q 8.59375 32.421875 8.59375 37.015625 
Q 8.59375 45.75 15.15625 50.875 
Q 21.734375 56 33.015625 56 
Q 37.453125 56 41.671875 55.265625 
Q 45.90625 54.546875 50 53.078125 
z
" id="DejaVuSans-Oblique-73"/>
      <path d="M 10.59375 35.5 
L 73.1875 35.5 
L 73.1875 27.203125 
L 10.59375 27.203125 
z
" id="DejaVuSans-2212"/>
     </defs>
     <g transform="translate(21.76875 324.94)rotate(-90)scale(0.2 -0.2)">
      <use transform="translate(0 0.765625)" xlink:href="#DejaVuSans-Oblique-4c"/>
      <use transform="translate(55.712891 0.765625)" xlink:href="#DejaVuSans-Oblique-6f"/>
      <use transform="translate(116.894531 0.765625)" xlink:href="#DejaVuSans-Oblique-67"/>
      <use transform="translate(180.371094 0.765625)" xlink:href="#DejaVuSans-28"/>
      <use transform="translate(219.384766 0.765625)" xlink:href="#DejaVuSans-Oblique-67"/>
      <use transform="translate(282.861328 0.765625)" xlink:href="#DejaVuSans-2f"/>
      <use transform="translate(316.552734 0.765625)" xlink:href="#DejaVuSans-Oblique-63"/>
      <use transform="translate(371.533203 0.765625)" xlink:href="#DejaVuSans-Oblique-6d"/>
      <use transform="translate(488.427734 0.765625)" xlink:href="#DejaVuSans-22c5"/>
      <use transform="translate(539.697266 0.765625)" xlink:href="#DejaVuSans-Oblique-73"/>
      <use transform="translate(596.446771 39.046875)scale(0.7)" xlink:href="#DejaVuSans-2212"/>
      <use transform="translate(655.099115 39.046875)scale(0.7)" xlink:href="#DejaVuSans-32"/>
      <use transform="translate(702.369622 0.765625)" xlink:href="#DejaVuSans-29"/>
     </g>
    </g>
   </g>
   <g id="line2d_33">
    <path clip-path="url(#p561e554c60)" d="M 280.120705 110.194177 
L 280.073808 110.371672 
L 288.281667 115.374318 
L 291.540084 117.759267 
L 294.855676 120.495934 
L 298.161725 123.544141 
L 302.063628 127.474142 
L 309.244473 135.109348 
L 315.832846 141.974984 
L 322.060963 148.10861 
L 328.778275 154.351152 
L 335.034685 159.865342 
L 342.23943 165.911268 
L 349.815235 171.979308 
L 357.466244 177.838357 
L 367.623709 185.245119 
L 377.669294 192.302984 
L 391.028114 201.37811 
L 401.449406 208.246186 
L 414.719302 216.758027 
L 430.879354 226.850508 
L 441.580491 233.33676 
L 467.087336 248.419407 
L 491.166826 262.199348 
L 534.978022 287.050264 
L 542.008713 291.299064 
L 544.471054 292.993021 
L 545.280537 294.002047 
L 542.104203 293.328577 
L 514.347637 282.580995 
L 501.894685 277.655325 
L 480.566717 269.585902 
L 466.858541 266.778104 
L 465.692154 267.321831 
L 466.823456 268.643395 
L 474.561758 272.595537 
L 482.666654 276.229699 
L 491.229328 280.678801 
L 525.381876 296.606065 
L 549.886134 308.573492 
L 574.721086 320.496109 
L 649 355.644818 
L 649 355.644818 
" style="fill:none;stroke:#0000ff;stroke-linecap:square;stroke-width:1.3;"/>
   </g>
   <g id="line2d_34">
    <path clip-path="url(#p561e554c60)" d="M 267.309504 103.925302 
L 273.806298 107.68619 
L 277.47738 110.217884 
L 280.011816 112.21791 
L 283.76325 115.715853 
L 286.669314 118.802856 
L 291.741534 124.637079 
L 296.875692 130.444048 
L 302.282712 136.277228 
L 308.394486 142.394686 
L 313.438248 147.13552 
L 317.057436 150.426041 
L 318.63267 151.919827 
L 330.715602 162.135716 
L 337.75812 167.644352 
L 345.451824 173.44813 
L 353.64438 179.415638 
L 365.861232 187.964584 
L 379.184598 196.904898 
L 382.726782 199.260683 
L 388.644372 202.720865 
L 400.193298 210.059825 
L 412.97931 218.019871 
L 436.00518 231.938431 
L 451.327302 241.001245 
L 479.162574 257.043668 
L 508.64004 273.799059 
L 526.017834 283.708212 
L 531.33948 286.851966 
L 534.978756 289.169785 
L 537.581826 291.223656 
L 537.411078 291.29063 
L 536.75487 291.233588 
L 534.50334 290.675778 
L 529.069536 288.832934 
L 515.392956 283.594818 
L 502.44624 278.602398 
L 490.1256 273.944611 
L 450.04167 259.892214 
L 452.666502 260.675479 
L 452.465622 260.878365 
L 458.004888 263.282453 
L 458.004888 263.282453 
L 461.381346 264.932644 
L 461.381346 264.932644 
L 472.091598 269.812738 
L 472.091598 269.812738 
L 489.946482 279.023728 
L 509.465322 288.876141 
L 556.486308 312.132826 
L 556.486308 312.132826 
L 592.05546 329.130603 
L 649 356.142566 
L 649 356.142566 
" style="fill:none;stroke:#000875;stroke-linecap:square;stroke-width:0.8;"/>
   </g>
   <g id="line2d_35">
    <path clip-path="url(#p561e554c60)" d="M 222.85069 113.137122 
L 223.010066 113.334519 
L 231.006938 118.169392 
L 234.777065 120.852146 
L 238.046037 123.435355 
L 241.850526 126.709914 
L 247.04519 131.506032 
L 262.168898 145.624349 
L 269.365027 151.923948 
L 277.348493 158.642708 
L 284.614347 164.485015 
L 293.096006 171.019592 
L 302.578434 178.009446 
L 311.565086 184.364995 
L 322.430127 191.780923 
L 335.401686 200.330124 
L 346.855526 207.662165 
L 362.716509 217.515719 
L 380.067859 227.99433 
L 398.029923 238.582947 
L 414.923295 248.250915 
L 436.67245 260.431386 
L 461.292874 273.994697 
L 491.887164 290.58113 
L 503.880251 297.064616 
L 526.690601 309.518153 
L 533.028488 313.193057 
L 535.312359 314.668358 
L 536.310226 315.597843 
L 534.609515 315.377512 
L 526.233416 312.277804 
L 495.60941 299.657275 
L 483.628512 295.103052 
L 472.429435 290.931092 
L 442.156249 280.209287 
L 440.98346 279.893885 
L 446.398513 284.852619 
L 455.8413 290.87076 
L 465.035318 295.865276 
L 470.835479 299.148844 
L 491.057572 308.177184 
L 503.428317 313.517694 
L 530.069834 325.43831 
L 558.506765 338.533431 
L 649 380.949547 
L 649 380.949547 
" style="fill:none;stroke:#009cb2;stroke-linecap:square;stroke-width:1.3;"/>
   </g>
   <g id="line2d_36">
    <path clip-path="url(#p561e554c60)" d="M 209.812626 106.695346 
L 216.421578 110.475402 
L 220.216536 112.997505 
L 222.906654 115.051505 
L 226.96443 118.566325 
L 231.76044 123.259583 
L 240.627618 132.210145 
L 245.415258 136.788701 
L 250.58457 141.52046 
L 258.202944 148.078604 
L 264.617712 153.295268 
L 273.82806 160.467804 
L 281.540178 166.214846 
L 292.831308 174.26975 
L 302.115312 180.646312 
L 315.88731 189.789862 
L 327.250422 197.085009 
L 343.814652 207.399279 
L 357.387444 215.602374 
L 377.359938 227.394299 
L 388.085256 233.618808 
L 417.740166 250.407402 
L 459.082944 273.134943 
L 531.09675 311.761011 
L 538.288254 315.694244 
L 543.948048 318.986523 
L 546.423894 320.882037 
L 546.370326 320.935937 
L 545.809536 320.876186 
L 544.174038 320.406961 
L 540.193266 318.993052 
L 529.47297 314.84819 
L 498.468816 302.736931 
L 454.824288 286.983379 
L 456.004458 287.510686 
L 465.35877 291.68549 
L 476.849106 297.098497 
L 509.815188 313.534922 
L 529.940016 323.294913 
L 594.338796 354.150107 
L 649 380.056702 
L 649 380.056702 
" style="fill:none;stroke:#004752;stroke-linecap:square;stroke-width:0.8;"/>
   </g>
   <g id="line2d_37">
    <path clip-path="url(#p561e554c60)" d="M 178.630848 116.134844 
L 178.995329 116.405333 
L 184.405756 119.546416 
L 188.555815 122.242154 
L 192.313472 124.946529 
L 196.458588 128.201406 
L 201.515372 132.46801 
L 222.334166 150.429521 
L 230.725788 157.180528 
L 239.410184 163.839473 
L 249.215542 171.018898 
L 258.670418 177.66185 
L 269.608339 185.072816 
L 279.588975 191.61804 
L 292.465119 199.813006 
L 308.381895 209.648261 
L 325.328137 219.806077 
L 342.904663 230.084797 
L 362.976569 241.556722 
L 380.937256 251.594182 
L 407.904501 266.357409 
L 436.090204 281.477114 
L 469.098872 298.901104 
L 536.905252 334.364745 
L 542.945625 337.765782 
L 544.957179 339.045033 
L 545.518228 339.708489 
L 543.012446 339.064016 
L 532.955035 335.170827 
L 490.579414 317.791571 
L 471.280752 310.700104 
L 453.195592 304.077824 
L 444.286853 300.59685 
L 441.858311 299.433464 
L 446.098136 301.018263 
L 471.318577 313.69992 
L 484.938585 320.905865 
L 498.682027 327.736871 
L 510.075236 333.567331 
L 524.108742 340.16696 
L 536.965996 346.566585 
L 552.051526 353.809644 
L 565.783203 360.657887 
L 580.237136 367.629136 
L 608.256258 380.804672 
L 649 399.459887 
L 649 399.459887 
" style="fill:none;stroke:#008000;stroke-linecap:square;stroke-width:1.3;"/>
   </g>
   <g id="line2d_38">
    <path clip-path="url(#p561e554c60)" d="M 165.155328 109.461115 
L 172.162692 113.349307 
L 176.193684 115.932473 
L 179.133228 118.040158 
L 183.537522 121.575834 
L 188.99811 126.352942 
L 197.620884 134.060663 
L 204.954678 140.374861 
L 213.133842 146.994932 
L 219.998916 152.290236 
L 227.40804 157.785236 
L 235.531962 163.583004 
L 247.507758 171.803536 
L 253.94931 176.10478 
L 268.226856 185.309942 
L 280.03023 192.707879 
L 297.508464 203.317834 
L 311.784336 211.781163 
L 333.29691 224.191367 
L 351.109944 234.223642 
L 370.494864 244.965935 
L 399.06 260.456528 
L 431.219214 277.5993 
L 457.85925 291.570862 
L 497.14803 311.943234 
L 573.602958 351.148059 
L 582.717888 356.023058 
L 587.96253 359.195919 
L 587.847024 359.253676 
L 587.498832 359.216894 
L 585.536904 358.620906 
L 581.331816 357.083671 
L 572.576796 353.657094 
L 554.542794 346.463895 
L 543.31695 342.096102 
L 496.471734 324.40703 
L 496.858428 324.425231 
L 496.513584 324.317784 
L 496.446624 324.292862 
L 497.903004 324.886201 
L 502.899894 327.068331 
L 504.709488 328.002509 
L 521.005878 335.784929 
L 564.839568 356.987396 
L 615.546702 381.650702 
L 649 397.649856 
L 649 397.649856 
" style="fill:none;stroke:#004007;stroke-linecap:square;stroke-width:0.8;"/>
   </g>
   <g id="line2d_39">
    <path clip-path="url(#p561e554c60)" d="M 139.546994 118.544597 
L 139.491553 118.663372 
L 139.510847 118.747087 
L 139.588529 118.821337 
L 139.724502 118.906921 
L 139.899273 119.006399 
L 140.115406 119.126062 
L 140.369893 119.266834 
L 140.674275 119.435276 
L 141.029323 119.632747 
L 141.443627 119.864575 
L 141.922442 120.134839 
L 142.470808 120.44763 
L 143.097394 120.809313 
L 143.803328 121.222743 
L 144.597564 121.69589 
L 145.482904 122.233635 
L 146.470417 122.84647 
L 147.568773 123.543927 
L 148.780657 124.335209 
L 150.119658 125.235111 
L 151.601319 126.261686 
L 153.241476 127.43248 
L 155.054374 128.773613 
L 157.084932 130.321389 
L 159.367043 132.114261 
L 161.875987 134.168049 
L 165.070354 136.729789 
L 168.815544 139.776087 
L 173.596331 143.626652 
L 180.601741 149.167003 
L 190.084874 156.356874 
L 203.437352 165.97717 
L 223.371241 179.483582 
L 258.519994 201.590164 
L 300.961277 226.431908 
L 346.08843 251.511565 
L 394.346516 277.333891 
L 452.832919 307.615512 
L 510.603102 336.807734 
L 566.033011 364.334893 
L 614.755906 388.364631 
L 649 405.142489 
M 649 415.520596 
L 644.861766 413.858602 
L 644.998025 413.814856 
L 649 415.434343 
" style="fill:none;stroke:#bfbf00;stroke-linecap:square;stroke-width:1.3;"/>
   </g>
   <g id="line2d_40">
    <path clip-path="url(#p561e554c60)" d="M 126.25659 112.067475 
L 133.819722 116.134526 
L 138.143664 118.795133 
L 141.237216 120.883594 
L 146.023182 124.46104 
L 152.022798 129.281679 
L 163.575072 138.696868 
L 171.971856 145.235307 
L 181.44 152.239693 
L 191.932632 159.672547 
L 204.13107 167.898871 
L 217.36404 176.530327 
L 232.833474 186.193723 
L 245.550852 193.948803 
L 259.522056 202.219696 
L 280.54917 214.383373 
L 292.362588 221.067081 
L 317.909502 235.245072 
L 339.104016 246.758424 
L 363.701772 259.88162 
L 389.931678 273.660147 
L 420.237774 289.306727 
L 465.564672 312.391044 
L 504.84006 332.060143 
L 549.365112 354.107205 
L 583.573302 370.880395 
L 649 402.771219 
L 649 402.771219 
" style="fill:none;stroke:#4c4600;stroke-linecap:square;stroke-width:0.8;"/>
   </g>
   <g id="line2d_41">
    <path clip-path="url(#p561e554c60)" d="M 112.383001 120.718573 
L 113.164817 121.140082 
L 114.038254 121.617186 
L 115.015359 122.158263 
L 116.098681 122.768081 
L 117.264928 123.440669 
L 118.546615 124.196754 
L 119.938169 125.039546 
L 121.445541 125.97906 
L 123.099172 127.041488 
L 124.896473 128.23473 
L 126.889886 129.596039 
L 129.09511 131.149951 
L 131.560739 132.942074 
L 134.377441 135.033738 
L 137.663648 137.513573 
L 141.584061 140.496701 
L 146.398119 144.149017 
L 153.278716 149.329279 
L 162.745701 156.227995 
L 175.994357 165.448598 
L 195.554831 178.371478 
L 227.703097 198.288327 
L 267.599066 221.480869 
L 309.935492 244.944729 
L 353.147474 268.057854 
L 397.550972 291.182913 
L 448.196692 316.927862 
L 496.009697 340.830262 
L 534.86993 360.198987 
L 568.978646 377.049974 
L 604.96994 394.757632 
L 647.734276 415.79533 
L 649 416.41774 
" style="fill:none;stroke:#ff0000;stroke-linecap:square;stroke-width:1.3;"/>
   </g>
   <g id="line2d_42">
    <path clip-path="url(#p561e554c60)" d="M 99.38052 114.563546 
L 106.978806 118.564493 
L 111.411558 121.164602 
L 117.377694 125.078206 
L 123.989994 129.913473 
L 142.417386 143.794075 
L 151.711434 150.439677 
L 159.215976 155.651793 
L 167.703156 161.346048 
L 183.328272 171.447031 
L 193.839318 178.042048 
L 209.949894 187.805561 
L 227.61729 198.246849 
L 242.915976 207.043012 
L 259.6995 216.526991 
L 278.150328 226.747989 
L 298.757268 237.950927 
L 322.21503 250.479325 
L 357.204978 268.831962 
L 398.301678 289.924331 
L 434.081754 307.98368 
L 460.37862 321.100153 
L 503.31672 342.314146 
L 553.459716 366.794171 
L 649 413.000885 
M 649 441.181287 
L 563.466888 406.488492 
L 564.148206 406.975895 
L 567.300348 408.607718 
L 574.339518 411.871121 
L 649 445.691575 
L 649 445.691575 
" style="fill:none;stroke:#690c00;stroke-linecap:square;stroke-width:0.8;"/>
   </g>
   <g id="patch_3">
    <path d="M 81 441 
L 81 60.48 
" style="fill:none;stroke:#000000;stroke-linecap:square;stroke-linejoin:miter;"/>
   </g>
   <g id="patch_4">
    <path d="M 583.2 441 
L 583.2 60.48 
" style="fill:none;stroke:#000000;stroke-linecap:square;stroke-linejoin:miter;"/>
   </g>
   <g id="patch_5">
    <path d="M 81 441 
L 583.2 441 
" style="fill:none;stroke:#000000;stroke-linecap:square;stroke-linejoin:miter;"/>
   </g>
   <g id="patch_6">
    <path d="M 81 60.48 
L 583.2 60.48 
" style="fill:none;stroke:#000000;stroke-linecap:square;stroke-linejoin:miter;"/>
   </g>
   <g id="text_19">
    <!-- Log(g) x Log(Teff) -->
    <defs>
     <path d="M 9.8125 72.90625 
L 19.671875 72.90625 
L 19.671875 8.296875 
L 55.171875 8.296875 
L 55.171875 0 
L 9.8125 0 
z
" id="DejaVuSans-4c"/>
     <path d="M 30.609375 48.390625 
Q 23.390625 48.390625 19.1875 42.75 
Q 14.984375 37.109375 14.984375 27.296875 
Q 14.984375 17.484375 19.15625 11.84375 
Q 23.34375 6.203125 30.609375 6.203125 
Q 37.796875 6.203125 41.984375 11.859375 
Q 46.1875 17.53125 46.1875 27.296875 
Q 46.1875 37.015625 41.984375 42.703125 
Q 37.796875 48.390625 30.609375 48.390625 
z
M 30.609375 56 
Q 42.328125 56 49.015625 48.375 
Q 55.71875 40.765625 55.71875 27.296875 
Q 55.71875 13.875 49.015625 6.21875 
Q 42.328125 -1.421875 30.609375 -1.421875 
Q 18.84375 -1.421875 12.171875 6.21875 
Q 5.515625 13.875 5.515625 27.296875 
Q 5.515625 40.765625 12.171875 48.375 
Q 18.84375 56 30.609375 56 
z
" id="DejaVuSans-6f"/>
     <path d="M 45.40625 27.984375 
Q 45.40625 37.75 41.375 43.109375 
Q 37.359375 48.484375 30.078125 48.484375 
Q 22.859375 48.484375 18.828125 43.109375 
Q 14.796875 37.75 14.796875 27.984375 
Q 14.796875 18.265625 18.828125 12.890625 
Q 22.859375 7.515625 30.078125 7.515625 
Q 37.359375 7.515625 41.375 12.890625 
Q 45.40625 18.265625 45.40625 27.984375 
z
M 54.390625 6.78125 
Q 54.390625 -7.171875 48.1875 -13.984375 
Q 42 -20.796875 29.203125 -20.796875 
Q 24.46875 -20.796875 20.265625 -20.09375 
Q 16.0625 -19.390625 12.109375 -17.921875 
L 12.109375 -9.1875 
Q 16.0625 -11.328125 19.921875 -12.34375 
Q 23.78125 -13.375 27.78125 -13.375 
Q 36.625 -13.375 41.015625 -8.765625 
Q 45.40625 -4.15625 45.40625 5.171875 
L 45.40625 9.625 
Q 42.625 4.78125 38.28125 2.390625 
Q 33.9375 0 27.875 0 
Q 17.828125 0 11.671875 7.65625 
Q 5.515625 15.328125 5.515625 27.984375 
Q 5.515625 40.671875 11.671875 48.328125 
Q 17.828125 56 27.875 56 
Q 33.9375 56 38.28125 53.609375 
Q 42.625 51.21875 45.40625 46.390625 
L 45.40625 54.6875 
L 54.390625 54.6875 
z
" id="DejaVuSans-67"/>
     <path id="DejaVuSans-20"/>
     <path d="M 54.890625 54.6875 
L 35.109375 28.078125 
L 55.90625 0 
L 45.3125 0 
L 29.390625 21.484375 
L 13.484375 0 
L 2.875 0 
L 24.125 28.609375 
L 4.6875 54.6875 
L 15.28125 54.6875 
L 29.78125 35.203125 
L 44.28125 54.6875 
z
" id="DejaVuSans-78"/>
     <path d="M -0.296875 72.90625 
L 61.375 72.90625 
L 61.375 64.59375 
L 35.5 64.59375 
L 35.5 0 
L 25.59375 0 
L 25.59375 64.59375 
L -0.296875 64.59375 
z
" id="DejaVuSans-54"/>
     <path d="M 56.203125 29.59375 
L 56.203125 25.203125 
L 14.890625 25.203125 
Q 15.484375 15.921875 20.484375 11.0625 
Q 25.484375 6.203125 34.421875 6.203125 
Q 39.59375 6.203125 44.453125 7.46875 
Q 49.3125 8.734375 54.109375 11.28125 
L 54.109375 2.78125 
Q 49.265625 0.734375 44.1875 -0.34375 
Q 39.109375 -1.421875 33.890625 -1.421875 
Q 20.796875 -1.421875 13.15625 6.1875 
Q 5.515625 13.8125 5.515625 26.8125 
Q 5.515625 40.234375 12.765625 48.109375 
Q 20.015625 56 32.328125 56 
Q 43.359375 56 49.78125 48.890625 
Q 56.203125 41.796875 56.203125 29.59375 
z
M 47.21875 32.234375 
Q 47.125 39.59375 43.09375 43.984375 
Q 39.0625 48.390625 32.421875 48.390625 
Q 24.90625 48.390625 20.390625 44.140625 
Q 15.875 39.890625 15.1875 32.171875 
z
" id="DejaVuSans-65"/>
     <path d="M 37.109375 75.984375 
L 37.109375 68.5 
L 28.515625 68.5 
Q 23.6875 68.5 21.796875 66.546875 
Q 19.921875 64.59375 19.921875 59.515625 
L 19.921875 54.6875 
L 34.71875 54.6875 
L 34.71875 47.703125 
L 19.921875 47.703125 
L 19.921875 0 
L 10.890625 0 
L 10.890625 47.703125 
L 2.296875 47.703125 
L 2.296875 54.6875 
L 10.890625 54.6875 
L 10.890625 58.5 
Q 10.890625 67.625 15.140625 71.796875 
Q 19.390625 75.984375 28.609375 75.984375 
z
" id="DejaVuSans-66"/>
    </defs>
    <g transform="translate(264.915234 54.48)scale(0.15 -0.15)">
     <use xlink:href="#DejaVuSans-4c"/>
     <use x="55.697266" xlink:href="#DejaVuSans-6f"/>
     <use x="116.878906" xlink:href="#DejaVuSans-67"/>
     <use x="180.355469" xlink:href="#DejaVuSans-28"/>
     <use x="219.369141" xlink:href="#DejaVuSans-67"/>
     <use x="282.845703" xlink:href="#DejaVuSans-29"/>
     <use x="321.859375" xlink:href="#DejaVuSans-20"/>
     <use x="353.646484" xlink:href="#DejaVuSans-78"/>
     <use x="412.826172" xlink:href="#DejaVuSans-20"/>
     <use x="444.613281" xlink:href="#DejaVuSans-4c"/>
     <use x="500.310547" xlink:href="#DejaVuSans-6f"/>
     <use x="561.492188" xlink:href="#DejaVuSans-67"/>
     <use x="624.96875" xlink:href="#DejaVuSans-28"/>
     <use x="663.982422" xlink:href="#DejaVuSans-54"/>
     <use x="724.800781" xlink:href="#DejaVuSans-65"/>
     <use x="786.324219" xlink:href="#DejaVuSans-66"/>
     <use x="821.529297" xlink:href="#DejaVuSans-66"/>
     <use x="856.734375" xlink:href="#DejaVuSans-29"/>
    </g>
   </g>
   <g id="legend_1">
    <g id="patch_7">
     <path d="M 88 436 
L 147.5 436 
Q 149.5 436 149.5 434 
L 149.5 361.609375 
Q 149.5 359.609375 147.5 359.609375 
L 88 359.609375 
Q 86 359.609375 86 361.609375 
L 86 434 
Q 86 436 88 436 
z
" style="fill:#ffffff;opacity:0.8;stroke:#cccccc;stroke-linejoin:miter;"/>
    </g>
    <g id="line2d_43">
     <path d="M 90 367.707812 
L 110 367.707812 
" style="fill:none;stroke:#0000ff;stroke-linecap:square;stroke-width:1.3;"/>
    </g>
    <g id="line2d_44"/>
    <g id="text_20">
     <!-- $25M_{\odot}$ -->
     <defs>
      <path d="M 16.890625 72.90625 
L 31.6875 72.90625 
L 40.1875 23.78125 
L 68.40625 72.90625 
L 83.59375 72.90625 
L 69.390625 0 
L 59.8125 0 
L 72.21875 63.921875 
L 43.609375 14.015625 
L 33.984375 14.015625 
L 24.703125 64.109375 
L 12.3125 0 
L 2.6875 0 
z
" id="DejaVuSans-Oblique-4d"/>
      <path d="M 36.71875 37.546875 
L 47.078125 37.546875 
L 47.078125 25.140625 
L 36.71875 25.140625 
z
M 51.65625 55.03125 
Q 47.125 56.9375 41.890625 56.9375 
Q 36.671875 56.9375 32.125 55.03125 
Q 27.640625 53.125 23.921875 49.421875 
Q 20.171875 45.65625 18.3125 41.15625 
Q 16.453125 36.671875 16.453125 31.34375 
Q 16.453125 26.171875 18.3125 21.671875 
Q 20.171875 17.1875 23.921875 13.421875 
Q 27.640625 9.71875 32.125 7.8125 
Q 36.671875 5.90625 41.890625 5.90625 
Q 47.125 5.90625 51.65625 7.8125 
Q 56.15625 9.71875 59.859375 13.421875 
Q 63.625 17.1875 65.46875 21.671875 
Q 67.328125 26.171875 67.328125 31.34375 
Q 67.328125 36.671875 65.46875 41.15625 
Q 63.625 45.65625 59.859375 49.421875 
Q 56.15625 53.125 51.65625 55.03125 
z
M 23.53125 59.375 
Q 35.15625 64.265625 41.890625 64.265625 
Q 48.640625 64.265625 54.4375 61.8125 
Q 60.25 59.375 65.046875 54.59375 
Q 69.875 49.75 72.265625 43.953125 
Q 74.65625 38.1875 74.65625 31.34375 
Q 74.65625 24.65625 72.265625 18.84375 
Q 69.875 13.09375 65.046875 8.25 
Q 60.25 3.46875 54.4375 1.015625 
Q 48.640625 -1.421875 41.890625 -1.421875 
Q 35.15625 -1.421875 29.34375 1.015625 
Q 23.53125 3.46875 18.75 8.25 
Q 13.921875 13.09375 11.53125 18.84375 
Q 9.125 24.65625 9.125 31.34375 
Q 9.125 38.1875 11.53125 43.953125 
Q 13.921875 49.75 18.75 54.59375 
Q 23.53125 59.375 35.15625 64.265625 
z
" id="DejaVuSans-2299"/>
     </defs>
     <g transform="translate(118 371.207812)scale(0.1 -0.1)">
      <use transform="translate(0 0.78125)" xlink:href="#DejaVuSans-32"/>
      <use transform="translate(63.623047 0.78125)" xlink:href="#DejaVuSans-35"/>
      <use transform="translate(127.246094 0.78125)" xlink:href="#DejaVuSans-Oblique-4d"/>
      <use transform="translate(213.525391 -15.625)scale(0.7)" xlink:href="#DejaVuSans-2299"/>
     </g>
    </g>
    <g id="line2d_45">
     <path d="M 90 382.385937 
L 110 382.385937 
" style="fill:none;stroke:#009cb2;stroke-linecap:square;stroke-width:1.3;"/>
    </g>
    <g id="line2d_46"/>
    <g id="text_21">
     <!-- $32M_{\odot}$ -->
     <g transform="translate(118 385.885937)scale(0.1 -0.1)">
      <use transform="translate(0 0.78125)" xlink:href="#DejaVuSans-33"/>
      <use transform="translate(63.623047 0.78125)" xlink:href="#DejaVuSans-32"/>
      <use transform="translate(127.246094 0.78125)" xlink:href="#DejaVuSans-Oblique-4d"/>
      <use transform="translate(213.525391 -15.625)scale(0.7)" xlink:href="#DejaVuSans-2299"/>
     </g>
    </g>
    <g id="line2d_47">
     <path d="M 90 397.064062 
L 110 397.064062 
" style="fill:none;stroke:#008000;stroke-linecap:square;stroke-width:1.3;"/>
    </g>
    <g id="line2d_48"/>
    <g id="text_22">
     <!-- $40M_{\odot}$ -->
     <g transform="translate(118 400.564062)scale(0.1 -0.1)">
      <use transform="translate(0 0.78125)" xlink:href="#DejaVuSans-34"/>
      <use transform="translate(63.623047 0.78125)" xlink:href="#DejaVuSans-30"/>
      <use transform="translate(127.246094 0.78125)" xlink:href="#DejaVuSans-Oblique-4d"/>
      <use transform="translate(213.525391 -15.625)scale(0.7)" xlink:href="#DejaVuSans-2299"/>
     </g>
    </g>
    <g id="line2d_49">
     <path d="M 90 411.742188 
L 110 411.742188 
" style="fill:none;stroke:#bfbf00;stroke-linecap:square;stroke-width:1.3;"/>
    </g>
    <g id="line2d_50"/>
    <g id="text_23">
     <!-- $50M_{\odot}$ -->
     <g transform="translate(118 415.242188)scale(0.1 -0.1)">
      <use transform="translate(0 0.78125)" xlink:href="#DejaVuSans-35"/>
      <use transform="translate(63.623047 0.78125)" xlink:href="#DejaVuSans-30"/>
      <use transform="translate(127.246094 0.78125)" xlink:href="#DejaVuSans-Oblique-4d"/>
      <use transform="translate(213.525391 -15.625)scale(0.7)" xlink:href="#DejaVuSans-2299"/>
     </g>
    </g>
    <g id="line2d_51">
     <path d="M 90 426.420313 
L 110 426.420313 
" style="fill:none;stroke:#ff0000;stroke-linecap:square;stroke-width:1.3;"/>
    </g>
    <g id="line2d_52"/>
    <g id="text_24">
     <!-- $60M_{\odot}$ -->
     <g transform="translate(118 429.920313)scale(0.1 -0.1)">
      <use transform="translate(0 0.78125)" xlink:href="#DejaVuSans-36"/>
      <use transform="translate(63.623047 0.78125)" xlink:href="#DejaVuSans-30"/>
      <use transform="translate(127.246094 0.78125)" xlink:href="#DejaVuSans-Oblique-4d"/>
      <use transform="translate(213.525391 -15.625)scale(0.7)" xlink:href="#DejaVuSans-2299"/>
     </g>
    </g>
   </g>
  </g>
 </g>
 <defs>
  <clipPath id="p561e554c60">
   <rect height="380.52" width="502.2" x="81" y="60.48"/>
  </clipPath>
 </defs>
</svg>
