<?xml version="1.0" encoding="utf-8" standalone="no"?>
<!DOCTYPE svg PUBLIC "-//W3C//DTD SVG 1.1//EN"
  "http://www.w3.org/Graphics/SVG/1.1/DTD/svg11.dtd">
<!-- Created with matplotlib (http://matplotlib.org/) -->
<svg height="504pt" version="1.1" viewBox="0 0 648 504" width="648pt" xmlns="http://www.w3.org/2000/svg" xmlns:xlink="http://www.w3.org/1999/xlink">
 <defs>
  <style type="text/css">
*{stroke-linecap:butt;stroke-linejoin:round;}
  </style>
 </defs>
 <g id="figure_1">
  <g id="patch_1">
   <path d="M 0 504 
L 648 504 
L 648 0 
L 0 0 
z
" style="fill:#ffffff;"/>
  </g>
  <g id="axes_1">
   <g id="patch_2">
    <path d="M 81 441 
L 583.2 441 
L 583.2 60.48 
L 81 60.48 
z
" style="fill:#ffffff;"/>
   </g>
   <g id="matplotlib.axis_1">
    <g id="xtick_1">
     <g id="line2d_1">
      <path clip-path="url(#p070b1c42f2)" d="M 583.2 441 
L 583.2 60.48 
" style="fill:none;stroke:#808080;stroke-dasharray:1.85,0.8;stroke-dashoffset:0;stroke-width:0.5;"/>
     </g>
     <g id="line2d_2">
      <defs>
       <path d="M 0 0 
L 0 3 
" id="m0e8e9a1fe4" style="stroke:#000000;"/>
      </defs>
      <g>
       <use style="stroke:#000000;" x="583.2" xlink:href="#m0e8e9a1fe4" y="441"/>
      </g>
     </g>
     <g id="text_1">
      <!-- 4.3 -->
      <defs>
       <path d="M 37.796875 64.3125 
L 12.890625 25.390625 
L 37.796875 25.390625 
z
M 35.203125 72.90625 
L 47.609375 72.90625 
L 47.609375 25.390625 
L 58.015625 25.390625 
L 58.015625 17.1875 
L 47.609375 17.1875 
L 47.609375 0 
L 37.796875 0 
L 37.796875 17.1875 
L 4.890625 17.1875 
L 4.890625 26.703125 
z
" id="DejaVuSans-34"/>
       <path d="M 10.6875 12.40625 
L 21 12.40625 
L 21 0 
L 10.6875 0 
z
" id="DejaVuSans-2e"/>
       <path d="M 40.578125 39.3125 
Q 47.65625 37.796875 51.625 33 
Q 55.609375 28.21875 55.609375 21.1875 
Q 55.609375 10.40625 48.1875 4.484375 
Q 40.765625 -1.421875 27.09375 -1.421875 
Q 22.515625 -1.421875 17.65625 -0.515625 
Q 12.796875 0.390625 7.625 2.203125 
L 7.625 11.71875 
Q 11.71875 9.328125 16.59375 8.109375 
Q 21.484375 6.890625 26.8125 6.890625 
Q 36.078125 6.890625 40.9375 10.546875 
Q 45.796875 14.203125 45.796875 21.1875 
Q 45.796875 27.640625 41.28125 31.265625 
Q 36.765625 34.90625 28.71875 34.90625 
L 20.21875 34.90625 
L 20.21875 43.015625 
L 29.109375 43.015625 
Q 36.375 43.015625 40.234375 45.921875 
Q 44.09375 48.828125 44.09375 54.296875 
Q 44.09375 59.90625 40.109375 62.90625 
Q 36.140625 65.921875 28.71875 65.921875 
Q 24.65625 65.921875 20.015625 65.03125 
Q 15.375 64.15625 9.8125 62.3125 
L 9.8125 71.09375 
Q 15.4375 72.65625 20.34375 73.4375 
Q 25.25 74.21875 29.59375 74.21875 
Q 40.828125 74.21875 47.359375 69.109375 
Q 53.90625 64.015625 53.90625 55.328125 
Q 53.90625 49.265625 50.4375 45.09375 
Q 46.96875 40.921875 40.578125 39.3125 
z
" id="DejaVuSans-33"/>
      </defs>
      <g transform="translate(567.296875 462.696875)scale(0.2 -0.2)">
       <use xlink:href="#DejaVuSans-34"/>
       <use x="63.623047" xlink:href="#DejaVuSans-2e"/>
       <use x="95.410156" xlink:href="#DejaVuSans-33"/>
      </g>
     </g>
    </g>
    <g id="xtick_2">
     <g id="line2d_3">
      <path clip-path="url(#p070b1c42f2)" d="M 457.65 441 
L 457.65 60.48 
" style="fill:none;stroke:#808080;stroke-dasharray:1.85,0.8;stroke-dashoffset:0;stroke-width:0.5;"/>
     </g>
     <g id="line2d_4">
      <g>
       <use style="stroke:#000000;" x="457.65" xlink:href="#m0e8e9a1fe4" y="441"/>
      </g>
     </g>
     <g id="text_2">
      <!-- 4.4 -->
      <g transform="translate(441.746875 462.696875)scale(0.2 -0.2)">
       <use xlink:href="#DejaVuSans-34"/>
       <use x="63.623047" xlink:href="#DejaVuSans-2e"/>
       <use x="95.410156" xlink:href="#DejaVuSans-34"/>
      </g>
     </g>
    </g>
    <g id="xtick_3">
     <g id="line2d_5">
      <path clip-path="url(#p070b1c42f2)" d="M 332.1 441 
L 332.1 60.48 
" style="fill:none;stroke:#808080;stroke-dasharray:1.85,0.8;stroke-dashoffset:0;stroke-width:0.5;"/>
     </g>
     <g id="line2d_6">
      <g>
       <use style="stroke:#000000;" x="332.1" xlink:href="#m0e8e9a1fe4" y="441"/>
      </g>
     </g>
     <g id="text_3">
      <!-- 4.5 -->
      <defs>
       <path d="M 10.796875 72.90625 
L 49.515625 72.90625 
L 49.515625 64.59375 
L 19.828125 64.59375 
L 19.828125 46.734375 
Q 21.96875 47.46875 24.109375 47.828125 
Q 26.265625 48.1875 28.421875 48.1875 
Q 40.625 48.1875 47.75 41.5 
Q 54.890625 34.8125 54.890625 23.390625 
Q 54.890625 11.625 47.5625 5.09375 
Q 40.234375 -1.421875 26.90625 -1.421875 
Q 22.3125 -1.421875 17.546875 -0.640625 
Q 12.796875 0.140625 7.71875 1.703125 
L 7.71875 11.625 
Q 12.109375 9.234375 16.796875 8.0625 
Q 21.484375 6.890625 26.703125 6.890625 
Q 35.15625 6.890625 40.078125 11.328125 
Q 45.015625 15.765625 45.015625 23.390625 
Q 45.015625 31 40.078125 35.4375 
Q 35.15625 39.890625 26.703125 39.890625 
Q 22.75 39.890625 18.8125 39.015625 
Q 14.890625 38.140625 10.796875 36.28125 
z
" id="DejaVuSans-35"/>
      </defs>
      <g transform="translate(316.196875 462.696875)scale(0.2 -0.2)">
       <use xlink:href="#DejaVuSans-34"/>
       <use x="63.623047" xlink:href="#DejaVuSans-2e"/>
       <use x="95.410156" xlink:href="#DejaVuSans-35"/>
      </g>
     </g>
    </g>
    <g id="xtick_4">
     <g id="line2d_7">
      <path clip-path="url(#p070b1c42f2)" d="M 206.55 441 
L 206.55 60.48 
" style="fill:none;stroke:#808080;stroke-dasharray:1.85,0.8;stroke-dashoffset:0;stroke-width:0.5;"/>
     </g>
     <g id="line2d_8">
      <g>
       <use style="stroke:#000000;" x="206.55" xlink:href="#m0e8e9a1fe4" y="441"/>
      </g>
     </g>
     <g id="text_4">
      <!-- 4.6 -->
      <defs>
       <path d="M 33.015625 40.375 
Q 26.375 40.375 22.484375 35.828125 
Q 18.609375 31.296875 18.609375 23.390625 
Q 18.609375 15.53125 22.484375 10.953125 
Q 26.375 6.390625 33.015625 6.390625 
Q 39.65625 6.390625 43.53125 10.953125 
Q 47.40625 15.53125 47.40625 23.390625 
Q 47.40625 31.296875 43.53125 35.828125 
Q 39.65625 40.375 33.015625 40.375 
z
M 52.59375 71.296875 
L 52.59375 62.3125 
Q 48.875 64.0625 45.09375 64.984375 
Q 41.3125 65.921875 37.59375 65.921875 
Q 27.828125 65.921875 22.671875 59.328125 
Q 17.53125 52.734375 16.796875 39.40625 
Q 19.671875 43.65625 24.015625 45.921875 
Q 28.375 48.1875 33.59375 48.1875 
Q 44.578125 48.1875 50.953125 41.515625 
Q 57.328125 34.859375 57.328125 23.390625 
Q 57.328125 12.15625 50.6875 5.359375 
Q 44.046875 -1.421875 33.015625 -1.421875 
Q 20.359375 -1.421875 13.671875 8.265625 
Q 6.984375 17.96875 6.984375 36.375 
Q 6.984375 53.65625 15.1875 63.9375 
Q 23.390625 74.21875 37.203125 74.21875 
Q 40.921875 74.21875 44.703125 73.484375 
Q 48.484375 72.75 52.59375 71.296875 
z
" id="DejaVuSans-36"/>
      </defs>
      <g transform="translate(190.646875 462.696875)scale(0.2 -0.2)">
       <use xlink:href="#DejaVuSans-34"/>
       <use x="63.623047" xlink:href="#DejaVuSans-2e"/>
       <use x="95.410156" xlink:href="#DejaVuSans-36"/>
      </g>
     </g>
    </g>
    <g id="xtick_5">
     <g id="line2d_9">
      <path clip-path="url(#p070b1c42f2)" d="M 81 441 
L 81 60.48 
" style="fill:none;stroke:#808080;stroke-dasharray:1.85,0.8;stroke-dashoffset:0;stroke-width:0.5;"/>
     </g>
     <g id="line2d_10">
      <g>
       <use style="stroke:#000000;" x="81" xlink:href="#m0e8e9a1fe4" y="441"/>
      </g>
     </g>
     <g id="text_5">
      <!-- 4.7 -->
      <defs>
       <path d="M 8.203125 72.90625 
L 55.078125 72.90625 
L 55.078125 68.703125 
L 28.609375 0 
L 18.3125 0 
L 43.21875 64.59375 
L 8.203125 64.59375 
z
" id="DejaVuSans-37"/>
      </defs>
      <g transform="translate(65.096875 462.696875)scale(0.2 -0.2)">
       <use xlink:href="#DejaVuSans-34"/>
       <use x="63.623047" xlink:href="#DejaVuSans-2e"/>
       <use x="95.410156" xlink:href="#DejaVuSans-37"/>
      </g>
     </g>
    </g>
    <g id="text_6">
     <!-- $Log(T_{eff}/K)$ -->
     <defs>
      <path d="M 16.796875 72.90625 
L 26.703125 72.90625 
L 14.203125 8.203125 
L 49.703125 8.203125 
L 48.09375 0 
L 2.6875 0 
z
" id="DejaVuSans-Oblique-4c"/>
      <path d="M 25.390625 -1.421875 
Q 15.765625 -1.421875 10.171875 4.515625 
Q 4.59375 10.453125 4.59375 20.703125 
Q 4.59375 26.65625 6.515625 32.828125 
Q 8.453125 39.015625 11.53125 43.21875 
Q 16.359375 49.75 22.3125 52.875 
Q 28.265625 56 35.796875 56 
Q 45.125 56 50.859375 50.1875 
Q 56.59375 44.390625 56.59375 35.015625 
Q 56.59375 28.515625 54.6875 22.0625 
Q 52.78125 15.625 49.703125 11.375 
Q 44.921875 4.828125 38.96875 1.703125 
Q 33.015625 -1.421875 25.390625 -1.421875 
z
M 13.921875 21 
Q 13.921875 13.578125 17.015625 9.890625 
Q 20.125 6.203125 26.421875 6.203125 
Q 35.453125 6.203125 41.375 14.078125 
Q 47.3125 21.96875 47.3125 34.078125 
Q 47.3125 41.15625 44.140625 44.765625 
Q 40.96875 48.390625 34.8125 48.390625 
Q 29.734375 48.390625 25.78125 46.015625 
Q 21.828125 43.65625 18.703125 38.8125 
Q 16.40625 35.203125 15.15625 30.5625 
Q 13.921875 25.921875 13.921875 21 
z
" id="DejaVuSans-Oblique-6f"/>
      <path d="M 59.625 54.6875 
L 50.296875 6.78125 
Q 47.609375 -7.125 40.015625 -13.953125 
Q 32.421875 -20.796875 19.578125 -20.796875 
Q 14.84375 -20.796875 10.78125 -20.09375 
Q 6.734375 -19.390625 3.21875 -17.921875 
L 4.890625 -9.1875 
Q 8.203125 -11.328125 11.90625 -12.34375 
Q 15.625 -13.375 19.828125 -13.375 
Q 28.375 -13.375 33.859375 -8.703125 
Q 39.359375 -4.046875 41.109375 4.6875 
L 41.890625 8.796875 
Q 38.140625 4.5 33.15625 2.25 
Q 28.171875 0 22.40625 0 
Q 14.109375 0 9.34375 5.484375 
Q 4.59375 10.984375 4.59375 20.609375 
Q 4.59375 28.171875 7.46875 35.421875 
Q 10.359375 42.671875 15.578125 48.296875 
Q 19.046875 52 23.65625 54 
Q 28.265625 56 33.296875 56 
Q 38.8125 56 42.90625 53.4375 
Q 47.015625 50.875 49.03125 46.1875 
L 50.59375 54.6875 
z
M 46.09375 34.625 
Q 46.09375 41.265625 42.96875 44.875 
Q 39.84375 48.484375 34.078125 48.484375 
Q 30.515625 48.484375 27.296875 47.0625 
Q 24.078125 45.65625 21.78125 43.109375 
Q 18.0625 38.921875 15.984375 33.234375 
Q 13.921875 27.546875 13.921875 21.484375 
Q 13.921875 14.75 17.0625 11.125 
Q 20.21875 7.515625 26.125 7.515625 
Q 34.671875 7.515625 40.375 15.25 
Q 46.09375 23 46.09375 34.625 
z
" id="DejaVuSans-Oblique-67"/>
      <path d="M 31 75.875 
Q 24.46875 64.65625 21.28125 53.65625 
Q 18.109375 42.671875 18.109375 31.390625 
Q 18.109375 20.125 21.3125 9.0625 
Q 24.515625 -2 31 -13.1875 
L 23.1875 -13.1875 
Q 15.875 -1.703125 12.234375 9.375 
Q 8.59375 20.453125 8.59375 31.390625 
Q 8.59375 42.28125 12.203125 53.3125 
Q 15.828125 64.359375 23.1875 75.875 
z
" id="DejaVuSans-28"/>
      <path d="M 5.90625 72.90625 
L 67.578125 72.90625 
L 66.015625 64.59375 
L 39.984375 64.59375 
L 27.484375 0 
L 17.578125 0 
L 30.078125 64.59375 
L 4.296875 64.59375 
z
" id="DejaVuSans-Oblique-54"/>
      <path d="M 48.09375 32.234375 
Q 48.25 33.015625 48.3125 33.84375 
Q 48.390625 34.671875 48.390625 35.5 
Q 48.390625 41.453125 44.890625 44.921875 
Q 41.40625 48.390625 35.40625 48.390625 
Q 28.71875 48.390625 23.578125 44.15625 
Q 18.453125 39.9375 15.828125 32.171875 
z
M 55.90625 25.203125 
L 14.109375 25.203125 
Q 13.8125 23.34375 13.71875 22.265625 
Q 13.625 21.1875 13.625 20.40625 
Q 13.625 13.625 17.796875 9.90625 
Q 21.96875 6.203125 29.59375 6.203125 
Q 35.453125 6.203125 40.671875 7.515625 
Q 45.90625 8.84375 50.390625 11.375 
L 48.6875 2.484375 
Q 43.84375 0.53125 38.6875 -0.4375 
Q 33.546875 -1.421875 28.21875 -1.421875 
Q 16.84375 -1.421875 10.71875 4.015625 
Q 4.59375 9.46875 4.59375 19.484375 
Q 4.59375 28.03125 7.640625 35.375 
Q 10.6875 42.71875 16.609375 48.484375 
Q 20.40625 52.09375 25.65625 54.046875 
Q 30.90625 56 36.8125 56 
Q 46.09375 56 51.578125 50.4375 
Q 57.078125 44.875 57.078125 35.5 
Q 57.078125 33.25 56.78125 30.6875 
Q 56.5 28.125 55.90625 25.203125 
z
" id="DejaVuSans-Oblique-65"/>
      <path d="M 47.796875 75.984375 
L 46.390625 68.5 
L 37.796875 68.5 
Q 32.90625 68.5 30.6875 66.578125 
Q 28.46875 64.65625 27.390625 59.515625 
L 26.421875 54.6875 
L 41.21875 54.6875 
L 39.890625 47.703125 
L 25.09375 47.703125 
L 15.828125 0 
L 6.78125 0 
L 16.109375 47.703125 
L 7.515625 47.703125 
L 8.796875 54.6875 
L 17.390625 54.6875 
L 18.109375 58.5 
Q 19.96875 68.171875 24.625 72.078125 
Q 29.296875 75.984375 39.3125 75.984375 
z
" id="DejaVuSans-Oblique-66"/>
      <path d="M 25.390625 72.90625 
L 33.6875 72.90625 
L 8.296875 -9.28125 
L 0 -9.28125 
z
" id="DejaVuSans-2f"/>
      <path d="M 16.890625 72.90625 
L 26.8125 72.90625 
L 20.796875 42.1875 
L 59.078125 72.90625 
L 72.21875 72.90625 
L 28.90625 38.09375 
L 60.59375 0 
L 48.578125 0 
L 19.484375 35.5 
L 12.59375 0 
L 2.6875 0 
z
" id="DejaVuSans-Oblique-4b"/>
      <path d="M 8.015625 75.875 
L 15.828125 75.875 
Q 23.140625 64.359375 26.78125 53.3125 
Q 30.421875 42.28125 30.421875 31.390625 
Q 30.421875 20.453125 26.78125 9.375 
Q 23.140625 -1.703125 15.828125 -13.1875 
L 8.015625 -13.1875 
Q 14.5 -2 17.703125 9.0625 
Q 20.90625 20.125 20.90625 31.390625 
Q 20.90625 42.671875 17.703125 53.65625 
Q 14.5 64.65625 8.015625 75.875 
z
" id="DejaVuSans-29"/>
     </defs>
     <g transform="translate(280.7 486.05625)scale(0.2 -0.2)">
      <use transform="translate(0 0.125)" xlink:href="#DejaVuSans-Oblique-4c"/>
      <use transform="translate(55.712891 0.125)" xlink:href="#DejaVuSans-Oblique-6f"/>
      <use transform="translate(116.894531 0.125)" xlink:href="#DejaVuSans-Oblique-67"/>
      <use transform="translate(180.371094 0.125)" xlink:href="#DejaVuSans-28"/>
      <use transform="translate(219.384766 0.125)" xlink:href="#DejaVuSans-Oblique-54"/>
      <use transform="translate(280.46875 -16.28125)scale(0.7)" xlink:href="#DejaVuSans-Oblique-65"/>
      <use transform="translate(323.535156 -16.28125)scale(0.7)" xlink:href="#DejaVuSans-Oblique-66"/>
      <use transform="translate(348.178711 -16.28125)scale(0.7)" xlink:href="#DejaVuSans-Oblique-66"/>
      <use transform="translate(375.556641 0.125)" xlink:href="#DejaVuSans-2f"/>
      <use transform="translate(409.248047 0.125)" xlink:href="#DejaVuSans-Oblique-4b"/>
      <use transform="translate(474.824219 0.125)" xlink:href="#DejaVuSans-29"/>
     </g>
    </g>
   </g>
   <g id="matplotlib.axis_2">
    <g id="ytick_1">
     <g id="line2d_11">
      <path clip-path="url(#p070b1c42f2)" d="M 81 403.781359 
L 583.2 403.781359 
" style="fill:none;stroke:#808080;stroke-dasharray:1.85,0.8;stroke-dashoffset:0;stroke-width:0.5;"/>
     </g>
     <g id="line2d_12">
      <defs>
       <path d="M 0 0 
L -3 0 
" id="m46b08746f1" style="stroke:#000000;"/>
      </defs>
      <g>
       <use style="stroke:#000000;" x="81" xlink:href="#m46b08746f1" y="403.781359"/>
      </g>
     </g>
     <g id="text_7">
      <!-- 4.7 -->
      <g transform="translate(42.69375 411.379796)scale(0.2 -0.2)">
       <use xlink:href="#DejaVuSans-34"/>
       <use x="63.623047" xlink:href="#DejaVuSans-2e"/>
       <use x="95.410156" xlink:href="#DejaVuSans-37"/>
      </g>
     </g>
    </g>
    <g id="ytick_2">
     <g id="line2d_13">
      <path clip-path="url(#p070b1c42f2)" d="M 81 339.708854 
L 583.2 339.708854 
" style="fill:none;stroke:#808080;stroke-dasharray:1.85,0.8;stroke-dashoffset:0;stroke-width:0.5;"/>
     </g>
     <g id="line2d_14">
      <g>
       <use style="stroke:#000000;" x="81" xlink:href="#m46b08746f1" y="339.708854"/>
      </g>
     </g>
     <g id="text_8">
      <!-- 5.0 -->
      <defs>
       <path d="M 31.78125 66.40625 
Q 24.171875 66.40625 20.328125 58.90625 
Q 16.5 51.421875 16.5 36.375 
Q 16.5 21.390625 20.328125 13.890625 
Q 24.171875 6.390625 31.78125 6.390625 
Q 39.453125 6.390625 43.28125 13.890625 
Q 47.125 21.390625 47.125 36.375 
Q 47.125 51.421875 43.28125 58.90625 
Q 39.453125 66.40625 31.78125 66.40625 
z
M 31.78125 74.21875 
Q 44.046875 74.21875 50.515625 64.515625 
Q 56.984375 54.828125 56.984375 36.375 
Q 56.984375 17.96875 50.515625 8.265625 
Q 44.046875 -1.421875 31.78125 -1.421875 
Q 19.53125 -1.421875 13.0625 8.265625 
Q 6.59375 17.96875 6.59375 36.375 
Q 6.59375 54.828125 13.0625 64.515625 
Q 19.53125 74.21875 31.78125 74.21875 
z
" id="DejaVuSans-30"/>
      </defs>
      <g transform="translate(42.69375 347.307291)scale(0.2 -0.2)">
       <use xlink:href="#DejaVuSans-35"/>
       <use x="63.623047" xlink:href="#DejaVuSans-2e"/>
       <use x="95.410156" xlink:href="#DejaVuSans-30"/>
      </g>
     </g>
    </g>
    <g id="ytick_3">
     <g id="line2d_15">
      <path clip-path="url(#p070b1c42f2)" d="M 81 275.636349 
L 583.2 275.636349 
" style="fill:none;stroke:#808080;stroke-dasharray:1.85,0.8;stroke-dashoffset:0;stroke-width:0.5;"/>
     </g>
     <g id="line2d_16">
      <g>
       <use style="stroke:#000000;" x="81" xlink:href="#m46b08746f1" y="275.636349"/>
      </g>
     </g>
     <g id="text_9">
      <!-- 5.3 -->
      <g transform="translate(42.69375 283.234786)scale(0.2 -0.2)">
       <use xlink:href="#DejaVuSans-35"/>
       <use x="63.623047" xlink:href="#DejaVuSans-2e"/>
       <use x="95.410156" xlink:href="#DejaVuSans-33"/>
      </g>
     </g>
    </g>
    <g id="ytick_4">
     <g id="line2d_17">
      <path clip-path="url(#p070b1c42f2)" d="M 81 211.563844 
L 583.2 211.563844 
" style="fill:none;stroke:#808080;stroke-dasharray:1.85,0.8;stroke-dashoffset:0;stroke-width:0.5;"/>
     </g>
     <g id="line2d_18">
      <g>
       <use style="stroke:#000000;" x="81" xlink:href="#m46b08746f1" y="211.563844"/>
      </g>
     </g>
     <g id="text_10">
      <!-- 5.6 -->
      <g transform="translate(42.69375 219.162281)scale(0.2 -0.2)">
       <use xlink:href="#DejaVuSans-35"/>
       <use x="63.623047" xlink:href="#DejaVuSans-2e"/>
       <use x="95.410156" xlink:href="#DejaVuSans-36"/>
      </g>
     </g>
    </g>
    <g id="ytick_5">
     <g id="line2d_19">
      <path clip-path="url(#p070b1c42f2)" d="M 81 147.491339 
L 583.2 147.491339 
" style="fill:none;stroke:#808080;stroke-dasharray:1.85,0.8;stroke-dashoffset:0;stroke-width:0.5;"/>
     </g>
     <g id="line2d_20">
      <g>
       <use style="stroke:#000000;" x="81" xlink:href="#m46b08746f1" y="147.491339"/>
      </g>
     </g>
     <g id="text_11">
      <!-- 5.9 -->
      <defs>
       <path d="M 10.984375 1.515625 
L 10.984375 10.5 
Q 14.703125 8.734375 18.5 7.8125 
Q 22.3125 6.890625 25.984375 6.890625 
Q 35.75 6.890625 40.890625 13.453125 
Q 46.046875 20.015625 46.78125 33.40625 
Q 43.953125 29.203125 39.59375 26.953125 
Q 35.25 24.703125 29.984375 24.703125 
Q 19.046875 24.703125 12.671875 31.3125 
Q 6.296875 37.9375 6.296875 49.421875 
Q 6.296875 60.640625 12.9375 67.421875 
Q 19.578125 74.21875 30.609375 74.21875 
Q 43.265625 74.21875 49.921875 64.515625 
Q 56.59375 54.828125 56.59375 36.375 
Q 56.59375 19.140625 48.40625 8.859375 
Q 40.234375 -1.421875 26.421875 -1.421875 
Q 22.703125 -1.421875 18.890625 -0.6875 
Q 15.09375 0.046875 10.984375 1.515625 
z
M 30.609375 32.421875 
Q 37.25 32.421875 41.125 36.953125 
Q 45.015625 41.5 45.015625 49.421875 
Q 45.015625 57.28125 41.125 61.84375 
Q 37.25 66.40625 30.609375 66.40625 
Q 23.96875 66.40625 20.09375 61.84375 
Q 16.21875 57.28125 16.21875 49.421875 
Q 16.21875 41.5 20.09375 36.953125 
Q 23.96875 32.421875 30.609375 32.421875 
z
" id="DejaVuSans-39"/>
      </defs>
      <g transform="translate(42.69375 155.089776)scale(0.2 -0.2)">
       <use xlink:href="#DejaVuSans-35"/>
       <use x="63.623047" xlink:href="#DejaVuSans-2e"/>
       <use x="95.410156" xlink:href="#DejaVuSans-39"/>
      </g>
     </g>
    </g>
    <g id="text_12">
     <!-- $Log(L/L_{\odot})$ -->
     <defs>
      <path d="M 36.71875 37.546875 
L 47.078125 37.546875 
L 47.078125 25.140625 
L 36.71875 25.140625 
z
M 51.65625 55.03125 
Q 47.125 56.9375 41.890625 56.9375 
Q 36.671875 56.9375 32.125 55.03125 
Q 27.640625 53.125 23.921875 49.421875 
Q 20.171875 45.65625 18.3125 41.15625 
Q 16.453125 36.671875 16.453125 31.34375 
Q 16.453125 26.171875 18.3125 21.671875 
Q 20.171875 17.1875 23.921875 13.421875 
Q 27.640625 9.71875 32.125 7.8125 
Q 36.671875 5.90625 41.890625 5.90625 
Q 47.125 5.90625 51.65625 7.8125 
Q 56.15625 9.71875 59.859375 13.421875 
Q 63.625 17.1875 65.46875 21.671875 
Q 67.328125 26.171875 67.328125 31.34375 
Q 67.328125 36.671875 65.46875 41.15625 
Q 63.625 45.65625 59.859375 49.421875 
Q 56.15625 53.125 51.65625 55.03125 
z
M 23.53125 59.375 
Q 35.15625 64.265625 41.890625 64.265625 
Q 48.640625 64.265625 54.4375 61.8125 
Q 60.25 59.375 65.046875 54.59375 
Q 69.875 49.75 72.265625 43.953125 
Q 74.65625 38.1875 74.65625 31.34375 
Q 74.65625 24.65625 72.265625 18.84375 
Q 69.875 13.09375 65.046875 8.25 
Q 60.25 3.46875 54.4375 1.015625 
Q 48.640625 -1.421875 41.890625 -1.421875 
Q 35.15625 -1.421875 29.34375 1.015625 
Q 23.53125 3.46875 18.75 8.25 
Q 13.921875 13.09375 11.53125 18.84375 
Q 9.125 24.65625 9.125 31.34375 
Q 9.125 38.1875 11.53125 43.953125 
Q 13.921875 49.75 18.75 54.59375 
Q 23.53125 59.375 35.15625 64.265625 
z
" id="DejaVuSans-2299"/>
     </defs>
     <g transform="translate(34.49375 297.24)rotate(-90)scale(0.2 -0.2)">
      <use transform="translate(0 0.125)" xlink:href="#DejaVuSans-Oblique-4c"/>
      <use transform="translate(55.712891 0.125)" xlink:href="#DejaVuSans-Oblique-6f"/>
      <use transform="translate(116.894531 0.125)" xlink:href="#DejaVuSans-Oblique-67"/>
      <use transform="translate(180.371094 0.125)" xlink:href="#DejaVuSans-28"/>
      <use transform="translate(219.384766 0.125)" xlink:href="#DejaVuSans-Oblique-4c"/>
      <use transform="translate(275.097656 0.125)" xlink:href="#DejaVuSans-2f"/>
      <use transform="translate(308.789062 0.125)" xlink:href="#DejaVuSans-Oblique-4c"/>
      <use transform="translate(364.501953 -16.28125)scale(0.7)" xlink:href="#DejaVuSans-2299"/>
      <use transform="translate(425.888672 0.125)" xlink:href="#DejaVuSans-29"/>
     </g>
    </g>
   </g>
   <g id="line2d_21">
    <path clip-path="url(#p070b1c42f2)" d="M 269.274739 418.790694 
L 270.182677 420.216832 
L 270.63931 420.496478 
L 271.589835 420.40637 
L 274.080298 419.888227 
L 275.892641 419.294736 
L 277.369286 418.593672 
L 278.661047 417.732468 
L 279.741058 416.781479 
L 280.535658 415.849574 
L 281.608633 414.107076 
L 282.699727 412.169945 
L 285.27234 408.694997 
L 291.22964 399.813789 
L 292.417845 398.235678 
L 293.708907 396.594365 
L 297.337192 392.38425 
L 303.641076 386.243337 
L 307.129957 383.32013 
L 309.750064 381.287676 
L 319.654828 374.742163 
L 322.123138 373.321061 
L 323.464334 372.576882 
L 328.887797 369.848076 
L 332.87947 367.978481 
L 342.294667 363.996711 
L 347.263667 362.093017 
L 354.443493 359.541135 
L 364.702037 356.259379 
L 377.283951 352.697314 
L 392.923611 348.824741 
L 404.921218 346.238073 
L 418.651633 343.650169 
L 433.943484 341.035757 
L 448.619926 338.760284 
L 460.028252 336.950796 
L 462.981688 336.423064 
L 463.073647 336.348074 
L 466.53561 335.768408 
L 477.252775 333.88063 
L 480.474567 333.395091 
L 481.333281 333.269606 
L 488.961499 332.209745 
L 525.546741 327.494795 
L 529.657066 326.71545 
L 531.19682 326.23446 
L 531.731313 325.920709 
L 531.841878 325.809434 
L 531.58536 325.454643 
L 530.432141 325.060175 
L 527.697104 324.592958 
L 522.56165 323.99996 
L 503.898113 322.13752 
L 497.662124 321.359009 
L 490.352758 320.213608 
L 481.17097 318.271113 
L 471.569715 315.66158 
L 468.676194 314.611522 
L 471.100627 314.926012 
L 475.887306 315.727095 
L 481.990666 316.577371 
L 488.634844 317.301104 
L 495.474663 317.850639 
L 501.925034 318.15989 
L 520.182039 318.47095 
L 531.397178 318.208396 
L 548.284493 317.590752 
L 558.839816 316.806706 
L 621.130217 313.214483 
L 639.709863 312.337939 
L 649 311.847112 
L 649 311.847112 
" style="fill:none;stroke:#0000ff;stroke-linecap:square;stroke-width:1.3;"/>
   </g>
   <g id="line2d_22">
    <path clip-path="url(#p070b1c42f2)" d="M 286.771186 423.703636 
L 287.31489 423.379002 
L 287.630784 421.45042 
L 287.750377 420.848138 
L 288.135333 419.978888 
L 289.095411 418.59065 
L 295.757683 410.252682 
L 300.986194 403.394788 
L 303.938827 399.977588 
L 306.878032 396.908515 
L 309.774843 394.16194 
L 313.272385 391.150532 
L 316.969473 388.271541 
L 320.614728 385.691555 
L 324.939301 382.900129 
L 329.726909 380.087346 
L 334.99325 377.274564 
L 341.043418 374.337907 
L 346.711818 371.830536 
L 353.164838 369.216378 
L 360.418954 366.53174 
L 368.81316 363.71255 
L 376.040924 361.489234 
L 384.35724 359.135637 
L 393.759439 356.698746 
L 404.218373 354.227683 
L 416.023193 351.69682 
L 429.432424 349.104019 
L 459.724068 343.706978 
L 472.630948 341.641708 
L 486.776657 339.574302 
L 502.317939 337.500488 
L 525.495161 334.691977 
L 544.119037 332.485747 
L 550.104031 331.680569 
L 555.112499 330.813454 
L 557.611761 329.71995 
L 557.60007 329.694321 
L 557.341899 329.467932 
L 556.56388 329.168927 
L 554.984849 328.805849 
L 552.871122 328.498301 
L 549.032317 328.291133 
L 537.695268 327.251023 
L 529.192436 326.661556 
L 521.837629 325.950351 
L 516.391 325.469808 
L 511.71307 324.792775 
L 507.816005 324.013226 
L 504.59796 323.184555 
L 501.022046 321.986399 
L 498.884292 320.984732 
L 497.313218 320.049274 
L 495.346646 319.318847 
L 495.416338 319.190702 
L 495.804765 319.017706 
L 496.062708 318.957905 
L 496.047838 318.906647 
L 494.546667 318.667443 
L 493.080696 318.614049 
L 491.81362 318.789181 
L 491.293341 319.049743 
L 491.199356 319.269725 
L 491.420807 319.573001 
L 493.125129 320.333328 
L 496.032936 321.247429 
L 500.331108 322.234146 
L 506.170738 323.186691 
L 512.85893 323.966239 
L 519.929432 324.596286 
L 527.158 325.070422 
L 534.540405 325.375834 
L 545.957609 325.58941 
L 561.657926 325.617174 
L 569.722004 325.561645 
L 614.642766 324.600557 
L 649 324.020554 
L 649 324.020554 
" style="fill:none;stroke:#000875;stroke-linecap:square;stroke-width:0.8;"/>
   </g>
   <g id="line2d_23">
    <path clip-path="url(#p070b1c42f2)" d="M 195.993681 321.383771 
L 194.783269 322.466284 
L 194.286576 323.697121 
L 194.228209 324.810974 
L 194.532244 326.137723 
L 194.853143 326.540056 
L 195.232409 326.610559 
L 196.813654 326.407528 
L 199.26595 325.909606 
L 201.187981 325.310852 
L 202.945074 324.499193 
L 204.057577 323.79116 
L 205.496748 322.554955 
L 206.430413 321.437513 
L 207.694595 319.604646 
L 209.022973 317.359287 
L 210.458021 315.759806 
L 215.423118 309.858879 
L 219.62957 305.509774 
L 220.360044 304.834387 
L 220.700187 304.523202 
L 221.476533 303.836252 
L 223.286538 302.308324 
L 227.159834 299.355248 
L 230.610879 297.01551 
L 232.139113 296.054652 
L 233.150073 295.436513 
L 235.515714 294.057969 
L 247.085791 288.212693 
L 249.576762 287.098501 
L 252.373307 285.900684 
L 254.136202 285.179068 
L 268.848406 279.929109 
L 272.621402 278.738566 
L 273.923542 278.337706 
L 279.597757 276.658735 
L 288.31378 274.281192 
L 296.71547 272.179288 
L 310.229351 269.125309 
L 315.832444 267.960832 
L 324.281789 266.30328 
L 338.06656 263.814849 
L 354.657218 261.202227 
L 378.644526 257.911295 
L 408.20966 254.46722 
L 429.706582 252.278532 
L 452.460683 250.209783 
L 485.217663 247.512748 
L 530.562962 244.713059 
L 537.979739 244.042984 
L 541.042603 243.573627 
L 541.646762 243.354859 
L 541.72624 243.235624 
L 541.621293 243.107462 
L 540.658961 242.815152 
L 538.125781 242.449419 
L 532.939211 241.941789 
L 522.647156 241.050457 
L 513.637107 240.153491 
L 498.48866 238.048018 
L 484.004287 235.044481 
L 493.655463 234.777865 
L 518.479937 235.372695 
L 553.19978 235.894174 
L 649 236.424297 
L 649 236.424297 
" style="fill:none;stroke:#009cb2;stroke-linecap:square;stroke-width:1.3;"/>
   </g>
   <g id="line2d_24">
    <path clip-path="url(#p070b1c42f2)" d="M 208.036162 328.143767 
L 208.39442 327.629051 
L 208.483632 327.372761 
L 208.374352 326.860181 
L 208.587728 325.407871 
L 208.891451 324.948684 
L 210.104343 323.620248 
L 224.248603 310.21628 
L 227.630608 307.52737 
L 231.449879 304.797882 
L 235.270259 302.341769 
L 238.786954 300.278634 
L 243.545748 297.737092 
L 249.884398 294.635982 
L 255.192443 292.352865 
L 261.38993 289.950146 
L 268.524109 287.449183 
L 274.928986 285.400999 
L 283.680937 282.855184 
L 292.372142 280.554982 
L 301.717774 278.318851 
L 312.473101 275.98234 
L 325.066703 273.517685 
L 336.293071 271.522894 
L 348.878533 269.478981 
L 362.806415 267.417982 
L 379.277237 265.196802 
L 397.790211 262.969215 
L 419.390834 260.643383 
L 455.081858 257.145024 
L 469.027463 256.034434 
L 484.84434 254.945201 
L 502.364843 253.922177 
L 522.667748 252.903424 
L 560.151599 251.361413 
L 621.562579 248.871128 
L 636.257357 248.063814 
L 644.485228 246.961767 
L 643.960187 246.923324 
L 644.304379 246.859251 
L 644.016476 246.816536 
L 640.61571 246.265513 
L 637.019587 245.936607 
L 629.398599 245.498778 
L 625.71297 245.157058 
L 616.592294 244.597492 
L 609.244777 243.871337 
L 603.787411 243.087516 
L 598.700947 242.064492 
L 594.30793 240.894101 
L 589.791951 239.674588 
L 585.022802 238.690007 
L 582.74315 238.480703 
L 582.195974 238.566133 
L 582.39581 238.694278 
L 583.392265 238.937754 
L 586.731142 239.465284 
L 592.328801 240.142317 
L 600.819089 240.943223 
L 611.238577 241.645885 
L 622.634848 242.179823 
L 638.804659 242.685995 
L 649 242.918593 
L 649 242.918593 
" style="fill:none;stroke:#004752;stroke-linecap:square;stroke-width:0.8;"/>
   </g>
   <g id="line2d_25">
    <path clip-path="url(#p070b1c42f2)" d="M 149.251146 265.642913 
L 151.809783 265.221051 
L 154.020043 264.656351 
L 155.950266 263.935775 
L 157.331341 263.212809 
L 158.919156 262.122902 
L 160.989221 260.267746 
L 164.577066 257.308278 
L 174.112396 249.705035 
L 177.055436 247.63152 
L 180.066263 245.695361 
L 183.523263 243.674129 
L 191.316134 239.767809 
L 195.70042 237.821499 
L 205.966361 233.901547 
L 210.677779 232.323463 
L 215.059302 230.948169 
L 225.252729 228.067451 
L 230.488854 226.713565 
L 236.638229 225.219271 
L 240.669069 224.294026 
L 243.666061 224.111566 
L 246.545078 223.036713 
L 249.823804 222.8569 
L 252.608677 221.828062 
L 256.085073 221.661936 
L 257.352829 221.189938 
L 258.615089 220.722297 
L 262.257807 220.569138 
L 264.490937 219.688226 
L 268.344565 219.543641 
L 269.375645 219.123457 
L 270.511578 218.69393 
L 274.599632 218.545798 
L 277.042988 217.665824 
L 281.426889 217.510771 
L 283.163435 216.902213 
L 284.889734 216.42361 
L 289.826045 216.260745 
L 291.430086 215.782483 
L 293.237885 215.291567 
L 298.471047 215.124025 
L 300.201493 214.640745 
L 302.857681 213.982017 
L 308.598017 213.814171 
L 309.946342 213.493883 
L 312.483486 212.84194 
L 313.279607 212.675457 
L 319.495184 212.509293 
L 320.964947 212.192248 
L 323.756257 211.534194 
L 325.984749 211.14625 
L 333.491356 210.930479 
L 337.11919 210.320128 
L 342.254443 209.488088 
L 345.260063 209.064006 
L 353.8935 208.852505 
L 356.800553 208.455846 
L 362.200401 207.638448 
L 371.284646 206.554645 
L 373.376244 206.333823 
L 384.238557 206.113377 
L 388.184279 205.706693 
L 396.901634 204.667712 
L 410.881646 203.37626 
L 427.750257 202.086089 
L 450.075693 200.642005 
L 469.895279 199.547615 
L 519.221097 197.749927 
L 520.945575 197.692585 
L 547.025377 197.547413 
L 547.399986 197.454703 
L 551.051638 197.199672 
L 566.410855 196.475897 
L 596.750579 196.298803 
L 600.43612 196.086658 
L 623.365283 195.112653 
L 649 195.037005 
L 649 195.037005 
" style="fill:none;stroke:#008000;stroke-linecap:square;stroke-width:1.3;"/>
   </g>
   <g id="line2d_26">
    <path clip-path="url(#p070b1c42f2)" d="M 162.064885 267.520498 
L 161.929673 267.296244 
L 162.128897 266.884045 
L 162.942576 264.92129 
L 163.18692 264.551806 
L 164.239529 263.659062 
L 171.60629 258.2428 
L 176.843011 254.486015 
L 180.204875 252.373758 
L 184.508874 249.958225 
L 189.097845 247.651614 
L 194.267366 245.327918 
L 200.005403 242.97005 
L 205.52765 240.966716 
L 212.347798 238.739129 
L 217.428822 237.203525 
L 226.36222 234.78372 
L 236.982149 232.23577 
L 245.758885 230.341359 
L 258.31333 227.902333 
L 271.925304 225.548736 
L 280.557984 224.186127 
L 299.378252 221.495082 
L 311.04575 219.989378 
L 324.95952 218.332036 
L 340.671595 216.614893 
L 356.62563 215.010945 
L 389.009097 212.119139 
L 405.065944 210.818467 
L 421.377789 209.571189 
L 437.038336 208.490499 
L 453.816031 207.540091 
L 471.36674 206.72637 
L 503.600282 205.611508 
L 549.455192 204.483832 
L 619.849384 202.961042 
L 649 202.377097 
L 649 202.377097 
" style="fill:none;stroke:#004007;stroke-linecap:square;stroke-width:0.8;"/>
   </g>
   <g id="line2d_27">
    <path clip-path="url(#p070b1c42f2)" d="M 120.920791 222.086586 
L 123.228032 221.67849 
L 125.455284 221.084074 
L 127.142741 220.447755 
L 128.961142 219.508907 
L 134.235704 216.334832 
L 144.604295 209.424104 
L 150.32174 206.15878 
L 158.961834 202.176404 
L 173.049498 197.237726 
L 197.488293 190.913879 
L 232.19827 184.773959 
L 271.422941 179.437086 
L 325.033927 175.103517 
L 384.596342 171.505502 
L 452.769908 168.092315 
L 546.977504 165.361648 
L 649 163.864424 
M 649 119.701025 
L 634.181093 112.686388 
L 639.927384 120.0746 
L 638.397422 121.392571 
L 626.679041 115.569729 
L 634.831921 123.904979 
L 635.494445 126.255564 
L 628.238556 123.145216 
L 607.971582 111.375554 
L 610.934184 116.869324 
L 609.46057 118.393075 
L 601.511004 115.381411 
L 613.754666 126.602964 
L 619.996722 132.588145 
L 620.07849 134.023206 
L 616.285899 132.69966 
L 608.631735 128.680391 
L 596.430816 121.356704 
L 574.08743 106.374266 
L 579.996793 115.169505 
L 590.211821 122.949008 
L 596.065777 126.123869 
L 597.344545 124.991852 
L 592.820591 118.92501 
L 598.96315 125.789737 
L 606.853597 130.14604 
L 610.261862 130.399224 
L 608.748033 126.976686 
L 598.742123 117.758805 
L 594.91069 120.018642 
L 595.052599 120.593986 
L 586.867379 114.542518 
L 588.456546 120.68089 
L 592.733222 124.389159 
L 591.258939 123.158427 
L 579.757518 114.222387 
L 577.402449 117.724796 
L 578.690189 118.928469 
L 572.125886 113.256215 
L 575.851804 119.884398 
L 581.623401 123.67263 
L 582.55246 123.033614 
L 576.961111 117.304002 
L 579.000115 122.55922 
L 583.464664 125.469677 
L 583.720329 124.680137 
L 578.410623 119.852273 
L 579.232229 124.848882 
L 582.742147 127.691539 
L 582.205648 127.084717 
L 576.46836 122.736817 
L 559.375663 109.955916 
L 566.596218 124.128369 
L 579.634201 134.572933 
L 586.448656 139.602523 
L 589.94438 141.867585 
L 592.117808 142.896134 
L 592.084479 142.789269 
L 591.213965 142.387311 
L 589.154307 141.649945 
L 586.460958 141.206318 
L 649 166.212498 
M 649 163.487256 
L 625.824495 161.986395 
L 614.837191 162.11175 
L 613.835417 162.925171 
L 616.12074 163.168155 
L 616.585569 163.029968 
L 612.295447 162.784923 
L 605.656777 162.383025 
L 600.125118 162.07326 
L 594.745963 162.100667 
L 585.897343 162.130156 
L 555.468324 162.542613 
L 541.582076 162.625113 
L 641.902653 162.686879 
L 641.528162 162.670159 
L 597.239716 162.601145 
L 553.038717 162.581501 
L 649 162.907149 
M 649 163.923591 
L 573.126362 166.439171 
L 561.977845 163.219558 
L 567.33371 162.873072 
L 566.07224 162.849213 
L 518.479536 162.498581 
L 505.810578 162.292397 
L 556.755041 162.172271 
L 546.76014 162.03363 
L 456.30668 161.679126 
L 446.396643 161.341537 
L 442.917654 161.034172 
L 441.091499 160.678142 
L 439.722499 160.251287 
L 437.56658 159.733963 
L 437.252259 159.115357 
L 438.901304 158.360106 
L 441.213987 157.45504 
L 445.089931 156.355126 
L 456.833057 154.999628 
L 493.626921 151.213553 
L 478.672897 149.954854 
L 463.116476 149.372825 
L 423.817763 146.085396 
L 413.898651 144.216878 
L 411.9539 142.987863 
L 413.806977 142.238753 
L 418.170663 141.800645 
L 428.890571 141.369493 
L 577.88656 141.157058 
L 595.161937 141.061829 
L 649 140.821261 
L 649 140.821261 
" style="fill:none;stroke:#bfbf00;stroke-linecap:square;stroke-width:1.3;"/>
   </g>
   <g id="line2d_28">
    <path clip-path="url(#p070b1c42f2)" d="M 131.04844 224.040896 
L 132.160227 223.534724 
L 132.741608 223.041365 
L 133.686287 222.093092 
L 135.244524 220.907751 
L 136.996169 219.921034 
L 150.002044 213.031104 
L 154.364033 211.079029 
L 160.134167 208.780961 
L 167.270533 206.277862 
L 173.366646 204.398402 
L 181.632414 202.140914 
L 191.26508 199.808675 
L 199.578447 198.025324 
L 209.659596 196.066841 
L 222.653601 193.83071 
L 235.550364 191.855141 
L 248.171693 190.108098 
L 263.015978 188.243588 
L 281.42949 186.165503 
L 305.54817 183.747834 
L 320.856594 182.35746 
L 339.129662 180.823992 
L 360.74025 179.143156 
L 382.010658 177.641724 
L 403.688106 176.234265 
L 425.282308 174.963493 
L 447.21846 174.004542 
L 481.010726 173.000739 
L 510.96282 172.415543 
L 649 170.167688 
L 649 170.167688 
" style="fill:none;stroke:#4c4600;stroke-linecap:square;stroke-width:0.8;"/>
   </g>
   <g id="line2d_29">
    <path clip-path="url(#p070b1c42f2)" d="M 91.877634 187.631589 
L 95.20115 187.213526 
L 98.345624 186.565186 
L 100.28388 185.999542 
L 102.508516 185.16605 
L 105.17403 183.945736 
L 108.558328 182.170608 
L 116.603672 177.853964 
L 121.609793 175.413373 
L 129.080074 172.372909 
L 139.925189 168.674748 
L 157.266122 164.003496 
L 189.825797 157.562729 
L 233.552898 151.564522 
L 286.167686 146.520206 
L 348.875283 142.117302 
L 435.924541 137.662438 
L 536.955158 133.951663 
L 649 132.298919 
M 649 90.74653 
L 639.683399 93.414085 
L 649 85.259004 
L 649 85.259004 
" style="fill:none;stroke:#ff0000;stroke-linecap:square;stroke-width:1.3;"/>
   </g>
   <g id="line2d_30">
    <path clip-path="url(#p070b1c42f2)" d="M 111.115996 190.548062 
L 112.650909 189.712984 
L 115.585032 187.933904 
L 121.337795 185.093356 
L 127.158947 182.558221 
L 131.310196 180.967087 
L 139.901177 178.14149 
L 146.258644 176.364545 
L 152.416691 174.833213 
L 161.645381 172.776485 
L 171.256207 170.914111 
L 183.400038 168.825347 
L 194.601034 167.129562 
L 206.552148 165.497849 
L 220.958005 163.703818 
L 238.646596 161.751743 
L 260.916051 159.543377 
L 279.910757 157.873221 
L 303.424752 156.000168 
L 334.125142 153.808888 
L 353.95858 152.518895 
L 378.33887 151.047363 
L 404.732224 149.575831 
L 428.499509 148.529314 
L 458.45485 147.668606 
L 490.921633 147.094089 
L 582.122831 145.799825 
L 649 144.665145 
M 649 143.513232 
L 606.474098 142.908019 
L 606.227308 142.865304 
L 606.60204 142.824725 
L 610.865237 142.702987 
L 637.711454 142.301466 
L 649 142.140481 
M 649 138.519427 
L 648.194573 138.444301 
L 648.677024 138.399451 
L 649 138.38363 
M 649 137.558394 
L 630.413215 137.239738 
L 630.175646 137.120136 
L 630.627421 137.030435 
L 630.505446 136.923647 
L 626.746525 136.725022 
L 610.891778 136.38971 
L 555.840418 135.605889 
L 539.8781 135.520459 
L 526.837497 135.274848 
L 516.494441 135.202233 
L 502.069644 134.693924 
L 497.975605 134.414141 
L 489.797878 134.106593 
L 490.25766 134.200566 
L 489.94049 134.209109 
L 484.585959 133.959226 
L 479.035489 133.510718 
L 476.852069 133.143369 
L 474.993715 132.893487 
L 473.015157 132.547495 
L 473.067547 132.395857 
L 470.895133 131.97725 
L 471.501458 131.89182 
L 471.216247 131.789304 
L 471.406707 131.646208 
L 469.381874 131.520199 
L 469.545883 131.475348 
L 469.478359 131.42409 
L 469.187547 131.360018 
L 469.251483 131.283131 
L 469.70541 131.097321 
L 466.575567 130.947818 
L 469.483057 130.815402 
L 469.618193 130.729972 
L 468.169626 130.627456 
L 463.282178 130.501446 
L 468.142109 130.364758 
L 468.890524 130.232342 
L 468.770236 130.09779 
L 461.445448 129.961102 
L 462.31934 129.837228 
L 469.323201 129.634332 
L 468.953843 129.478422 
L 469.073144 129.4293 
L 468.331606 129.382313 
L 468.448192 129.333191 
L 469.19729 129.286205 
L 468.970149 129.194367 
L 469.062182 129.147381 
L 466.944633 129.108937 
L 466.944633 129.108937 
" style="fill:none;stroke:#690c00;stroke-linecap:square;stroke-width:0.8;"/>
   </g>
   <g id="patch_3">
    <path d="M 81 441 
L 81 60.48 
" style="fill:none;stroke:#000000;stroke-linecap:square;stroke-linejoin:miter;"/>
   </g>
   <g id="patch_4">
    <path d="M 583.2 441 
L 583.2 60.48 
" style="fill:none;stroke:#000000;stroke-linecap:square;stroke-linejoin:miter;"/>
   </g>
   <g id="patch_5">
    <path d="M 81 441 
L 583.2 441 
" style="fill:none;stroke:#000000;stroke-linecap:square;stroke-linejoin:miter;"/>
   </g>
   <g id="patch_6">
    <path d="M 81 60.48 
L 583.2 60.48 
" style="fill:none;stroke:#000000;stroke-linecap:square;stroke-linejoin:miter;"/>
   </g>
   <g id="text_13">
    <!-- HR Diagram -->
    <defs>
     <path d="M 9.8125 72.90625 
L 19.671875 72.90625 
L 19.671875 43.015625 
L 55.515625 43.015625 
L 55.515625 72.90625 
L 65.375 72.90625 
L 65.375 0 
L 55.515625 0 
L 55.515625 34.71875 
L 19.671875 34.71875 
L 19.671875 0 
L 9.8125 0 
z
" id="DejaVuSans-48"/>
     <path d="M 44.390625 34.1875 
Q 47.5625 33.109375 50.5625 29.59375 
Q 53.5625 26.078125 56.59375 19.921875 
L 66.609375 0 
L 56 0 
L 46.6875 18.703125 
Q 43.0625 26.03125 39.671875 28.421875 
Q 36.28125 30.8125 30.421875 30.8125 
L 19.671875 30.8125 
L 19.671875 0 
L 9.8125 0 
L 9.8125 72.90625 
L 32.078125 72.90625 
Q 44.578125 72.90625 50.734375 67.671875 
Q 56.890625 62.453125 56.890625 51.90625 
Q 56.890625 45.015625 53.6875 40.46875 
Q 50.484375 35.9375 44.390625 34.1875 
z
M 19.671875 64.796875 
L 19.671875 38.921875 
L 32.078125 38.921875 
Q 39.203125 38.921875 42.84375 42.21875 
Q 46.484375 45.515625 46.484375 51.90625 
Q 46.484375 58.296875 42.84375 61.546875 
Q 39.203125 64.796875 32.078125 64.796875 
z
" id="DejaVuSans-52"/>
     <path id="DejaVuSans-20"/>
     <path d="M 19.671875 64.796875 
L 19.671875 8.109375 
L 31.59375 8.109375 
Q 46.6875 8.109375 53.6875 14.9375 
Q 60.6875 21.78125 60.6875 36.53125 
Q 60.6875 51.171875 53.6875 57.984375 
Q 46.6875 64.796875 31.59375 64.796875 
z
M 9.8125 72.90625 
L 30.078125 72.90625 
Q 51.265625 72.90625 61.171875 64.09375 
Q 71.09375 55.28125 71.09375 36.53125 
Q 71.09375 17.671875 61.125 8.828125 
Q 51.171875 0 30.078125 0 
L 9.8125 0 
z
" id="DejaVuSans-44"/>
     <path d="M 9.421875 54.6875 
L 18.40625 54.6875 
L 18.40625 0 
L 9.421875 0 
z
M 9.421875 75.984375 
L 18.40625 75.984375 
L 18.40625 64.59375 
L 9.421875 64.59375 
z
" id="DejaVuSans-69"/>
     <path d="M 34.28125 27.484375 
Q 23.390625 27.484375 19.1875 25 
Q 14.984375 22.515625 14.984375 16.5 
Q 14.984375 11.71875 18.140625 8.90625 
Q 21.296875 6.109375 26.703125 6.109375 
Q 34.1875 6.109375 38.703125 11.40625 
Q 43.21875 16.703125 43.21875 25.484375 
L 43.21875 27.484375 
z
M 52.203125 31.203125 
L 52.203125 0 
L 43.21875 0 
L 43.21875 8.296875 
Q 40.140625 3.328125 35.546875 0.953125 
Q 30.953125 -1.421875 24.3125 -1.421875 
Q 15.921875 -1.421875 10.953125 3.296875 
Q 6 8.015625 6 15.921875 
Q 6 25.140625 12.171875 29.828125 
Q 18.359375 34.515625 30.609375 34.515625 
L 43.21875 34.515625 
L 43.21875 35.40625 
Q 43.21875 41.609375 39.140625 45 
Q 35.0625 48.390625 27.6875 48.390625 
Q 23 48.390625 18.546875 47.265625 
Q 14.109375 46.140625 10.015625 43.890625 
L 10.015625 52.203125 
Q 14.9375 54.109375 19.578125 55.046875 
Q 24.21875 56 28.609375 56 
Q 40.484375 56 46.34375 49.84375 
Q 52.203125 43.703125 52.203125 31.203125 
z
" id="DejaVuSans-61"/>
     <path d="M 45.40625 27.984375 
Q 45.40625 37.75 41.375 43.109375 
Q 37.359375 48.484375 30.078125 48.484375 
Q 22.859375 48.484375 18.828125 43.109375 
Q 14.796875 37.75 14.796875 27.984375 
Q 14.796875 18.265625 18.828125 12.890625 
Q 22.859375 7.515625 30.078125 7.515625 
Q 37.359375 7.515625 41.375 12.890625 
Q 45.40625 18.265625 45.40625 27.984375 
z
M 54.390625 6.78125 
Q 54.390625 -7.171875 48.1875 -13.984375 
Q 42 -20.796875 29.203125 -20.796875 
Q 24.46875 -20.796875 20.265625 -20.09375 
Q 16.0625 -19.390625 12.109375 -17.921875 
L 12.109375 -9.1875 
Q 16.0625 -11.328125 19.921875 -12.34375 
Q 23.78125 -13.375 27.78125 -13.375 
Q 36.625 -13.375 41.015625 -8.765625 
Q 45.40625 -4.15625 45.40625 5.171875 
L 45.40625 9.625 
Q 42.625 4.78125 38.28125 2.390625 
Q 33.9375 0 27.875 0 
Q 17.828125 0 11.671875 7.65625 
Q 5.515625 15.328125 5.515625 27.984375 
Q 5.515625 40.671875 11.671875 48.328125 
Q 17.828125 56 27.875 56 
Q 33.9375 56 38.28125 53.609375 
Q 42.625 51.21875 45.40625 46.390625 
L 45.40625 54.6875 
L 54.390625 54.6875 
z
" id="DejaVuSans-67"/>
     <path d="M 41.109375 46.296875 
Q 39.59375 47.171875 37.8125 47.578125 
Q 36.03125 48 33.890625 48 
Q 26.265625 48 22.1875 43.046875 
Q 18.109375 38.09375 18.109375 28.8125 
L 18.109375 0 
L 9.078125 0 
L 9.078125 54.6875 
L 18.109375 54.6875 
L 18.109375 46.1875 
Q 20.953125 51.171875 25.484375 53.578125 
Q 30.03125 56 36.53125 56 
Q 37.453125 56 38.578125 55.875 
Q 39.703125 55.765625 41.0625 55.515625 
z
" id="DejaVuSans-72"/>
     <path d="M 52 44.1875 
Q 55.375 50.25 60.0625 53.125 
Q 64.75 56 71.09375 56 
Q 79.640625 56 84.28125 50.015625 
Q 88.921875 44.046875 88.921875 33.015625 
L 88.921875 0 
L 79.890625 0 
L 79.890625 32.71875 
Q 79.890625 40.578125 77.09375 44.375 
Q 74.3125 48.1875 68.609375 48.1875 
Q 61.625 48.1875 57.5625 43.546875 
Q 53.515625 38.921875 53.515625 30.90625 
L 53.515625 0 
L 44.484375 0 
L 44.484375 32.71875 
Q 44.484375 40.625 41.703125 44.40625 
Q 38.921875 48.1875 33.109375 48.1875 
Q 26.21875 48.1875 22.15625 43.53125 
Q 18.109375 38.875 18.109375 30.90625 
L 18.109375 0 
L 9.078125 0 
L 9.078125 54.6875 
L 18.109375 54.6875 
L 18.109375 46.1875 
Q 21.1875 51.21875 25.484375 53.609375 
Q 29.78125 56 35.6875 56 
Q 41.65625 56 45.828125 52.96875 
Q 50 49.953125 52 44.1875 
z
" id="DejaVuSans-6d"/>
    </defs>
    <g transform="translate(271.51875 54.48)scale(0.2 -0.2)">
     <use xlink:href="#DejaVuSans-48"/>
     <use x="75.195312" xlink:href="#DejaVuSans-52"/>
     <use x="144.677734" xlink:href="#DejaVuSans-20"/>
     <use x="176.464844" xlink:href="#DejaVuSans-44"/>
     <use x="253.466797" xlink:href="#DejaVuSans-69"/>
     <use x="281.25" xlink:href="#DejaVuSans-61"/>
     <use x="342.529297" xlink:href="#DejaVuSans-67"/>
     <use x="406.005859" xlink:href="#DejaVuSans-72"/>
     <use x="447.119141" xlink:href="#DejaVuSans-61"/>
     <use x="508.398438" xlink:href="#DejaVuSans-6d"/>
    </g>
   </g>
   <g id="legend_1">
    <g id="patch_7">
     <path d="M 516.7 436 
L 576.2 436 
Q 578.2 436 578.2 434 
L 578.2 361.609375 
Q 578.2 359.609375 576.2 359.609375 
L 516.7 359.609375 
Q 514.7 359.609375 514.7 361.609375 
L 514.7 434 
Q 514.7 436 516.7 436 
z
" style="fill:#ffffff;opacity:0.8;stroke:#cccccc;stroke-linejoin:miter;"/>
    </g>
    <g id="line2d_31">
     <path d="M 518.7 367.707812 
L 538.7 367.707812 
" style="fill:none;stroke:#0000ff;stroke-linecap:square;stroke-width:1.3;"/>
    </g>
    <g id="line2d_32"/>
    <g id="text_14">
     <!-- $25M_{\odot}$ -->
     <defs>
      <path d="M 19.1875 8.296875 
L 53.609375 8.296875 
L 53.609375 0 
L 7.328125 0 
L 7.328125 8.296875 
Q 12.9375 14.109375 22.625 23.890625 
Q 32.328125 33.6875 34.8125 36.53125 
Q 39.546875 41.84375 41.421875 45.53125 
Q 43.3125 49.21875 43.3125 52.78125 
Q 43.3125 58.59375 39.234375 62.25 
Q 35.15625 65.921875 28.609375 65.921875 
Q 23.96875 65.921875 18.8125 64.3125 
Q 13.671875 62.703125 7.8125 59.421875 
L 7.8125 69.390625 
Q 13.765625 71.78125 18.9375 73 
Q 24.125 74.21875 28.421875 74.21875 
Q 39.75 74.21875 46.484375 68.546875 
Q 53.21875 62.890625 53.21875 53.421875 
Q 53.21875 48.921875 51.53125 44.890625 
Q 49.859375 40.875 45.40625 35.40625 
Q 44.1875 33.984375 37.640625 27.21875 
Q 31.109375 20.453125 19.1875 8.296875 
z
" id="DejaVuSans-32"/>
      <path d="M 16.890625 72.90625 
L 31.6875 72.90625 
L 40.1875 23.78125 
L 68.40625 72.90625 
L 83.59375 72.90625 
L 69.390625 0 
L 59.8125 0 
L 72.21875 63.921875 
L 43.609375 14.015625 
L 33.984375 14.015625 
L 24.703125 64.109375 
L 12.3125 0 
L 2.6875 0 
z
" id="DejaVuSans-Oblique-4d"/>
     </defs>
     <g transform="translate(546.7 371.207812)scale(0.1 -0.1)">
      <use transform="translate(0 0.78125)" xlink:href="#DejaVuSans-32"/>
      <use transform="translate(63.623047 0.78125)" xlink:href="#DejaVuSans-35"/>
      <use transform="translate(127.246094 0.78125)" xlink:href="#DejaVuSans-Oblique-4d"/>
      <use transform="translate(213.525391 -15.625)scale(0.7)" xlink:href="#DejaVuSans-2299"/>
     </g>
    </g>
    <g id="line2d_33">
     <path d="M 518.7 382.385937 
L 538.7 382.385937 
" style="fill:none;stroke:#009cb2;stroke-linecap:square;stroke-width:1.3;"/>
    </g>
    <g id="line2d_34"/>
    <g id="text_15">
     <!-- $32M_{\odot}$ -->
     <g transform="translate(546.7 385.885937)scale(0.1 -0.1)">
      <use transform="translate(0 0.78125)" xlink:href="#DejaVuSans-33"/>
      <use transform="translate(63.623047 0.78125)" xlink:href="#DejaVuSans-32"/>
      <use transform="translate(127.246094 0.78125)" xlink:href="#DejaVuSans-Oblique-4d"/>
      <use transform="translate(213.525391 -15.625)scale(0.7)" xlink:href="#DejaVuSans-2299"/>
     </g>
    </g>
    <g id="line2d_35">
     <path d="M 518.7 397.064062 
L 538.7 397.064062 
" style="fill:none;stroke:#008000;stroke-linecap:square;stroke-width:1.3;"/>
    </g>
    <g id="line2d_36"/>
    <g id="text_16">
     <!-- $40M_{\odot}$ -->
     <g transform="translate(546.7 400.564062)scale(0.1 -0.1)">
      <use transform="translate(0 0.78125)" xlink:href="#DejaVuSans-34"/>
      <use transform="translate(63.623047 0.78125)" xlink:href="#DejaVuSans-30"/>
      <use transform="translate(127.246094 0.78125)" xlink:href="#DejaVuSans-Oblique-4d"/>
      <use transform="translate(213.525391 -15.625)scale(0.7)" xlink:href="#DejaVuSans-2299"/>
     </g>
    </g>
    <g id="line2d_37">
     <path d="M 518.7 411.742188 
L 538.7 411.742188 
" style="fill:none;stroke:#bfbf00;stroke-linecap:square;stroke-width:1.3;"/>
    </g>
    <g id="line2d_38"/>
    <g id="text_17">
     <!-- $50M_{\odot}$ -->
     <g transform="translate(546.7 415.242188)scale(0.1 -0.1)">
      <use transform="translate(0 0.78125)" xlink:href="#DejaVuSans-35"/>
      <use transform="translate(63.623047 0.78125)" xlink:href="#DejaVuSans-30"/>
      <use transform="translate(127.246094 0.78125)" xlink:href="#DejaVuSans-Oblique-4d"/>
      <use transform="translate(213.525391 -15.625)scale(0.7)" xlink:href="#DejaVuSans-2299"/>
     </g>
    </g>
    <g id="line2d_39">
     <path d="M 518.7 426.420313 
L 538.7 426.420313 
" style="fill:none;stroke:#ff0000;stroke-linecap:square;stroke-width:1.3;"/>
    </g>
    <g id="line2d_40"/>
    <g id="text_18">
     <!-- $60M_{\odot}$ -->
     <g transform="translate(546.7 429.920313)scale(0.1 -0.1)">
      <use transform="translate(0 0.78125)" xlink:href="#DejaVuSans-36"/>
      <use transform="translate(63.623047 0.78125)" xlink:href="#DejaVuSans-30"/>
      <use transform="translate(127.246094 0.78125)" xlink:href="#DejaVuSans-Oblique-4d"/>
      <use transform="translate(213.525391 -15.625)scale(0.7)" xlink:href="#DejaVuSans-2299"/>
     </g>
    </g>
   </g>
  </g>
 </g>
 <defs>
  <clipPath id="p070b1c42f2">
   <rect height="380.52" width="502.2" x="81" y="60.48"/>
  </clipPath>
 </defs>
</svg>
